<svg width="24" height="24" viewBox="0 0 24 24" fill="none" xmlns="http://www.w3.org/2000/svg">
<path fill-rule="evenodd" clip-rule="evenodd" d="M15.9418 8.21088C16.2229 8.49206 16.2229 8.94794 15.9418 9.22912L8.74178 16.4291C8.46061 16.7103 8.00473 16.7103 7.72355 16.4291L4.21088 12.9165C3.92971 12.6353 3.92971 12.1794 4.21088 11.8982C4.49206 11.6171 4.94794 11.6171 5.22912 11.8982L8.23267 14.9018L14.9235 8.21088C15.2047 7.92971 15.6606 7.92971 15.9418 8.21088Z" fill="#FF951D"/>
<path fill-rule="evenodd" clip-rule="evenodd" d="M19.3447 8.21088C19.6259 8.49206 19.6259 8.94794 19.3447 9.22912L12.1447 16.4291C11.8636 16.7103 11.4077 16.7103 11.1265 16.4291L10.6171 15.92C10.336 15.6388 10.336 15.183 10.6171 14.9018C10.8983 14.6206 11.3542 14.6206 11.6354 14.9018L18.3265 8.21088C18.6077 7.92971 19.0635 7.92971 19.3447 8.21088Z" fill="#FF951D"/>
</svg>
