<svg width="16" height="16" viewBox="0 0 16 16" fill="none" xmlns="http://www.w3.org/2000/svg">
<g clip-path="url(#clip0_3381_7609)">
<path fill-rule="evenodd" clip-rule="evenodd" d="M8 0C12.4183 0 16 3.58173 16 8C16 12.4183 12.4183 16 8 16C3.58173 16 0 12.4183 0 8C0 3.58173 3.58173 0 8 0Z" fill="white"/>
<path d="M8.91912 14.4915V8.31096H10.6626L10.8937 6.13569H8.91912L8.92205 5.04686C8.92205 4.4795 8.97598 4.17564 9.79141 4.17564H10.8815V2H9.13761C7.04292 2 6.30576 3.05519 6.30576 4.82995V6.13586H5V8.31133H6.30576V14.4039C6.81445 14.5052 7.34036 14.5587 7.87882 14.5587C8.22668 14.5587 8.57416 14.5363 8.91912 14.4915Z" fill="#1B6392"/>
</g>
<defs>
<clipPath id="clip0_3381_7609">
<rect width="16" height="16" fill="white"/>
</clipPath>
</defs>
</svg>
