<svg width="16" height="16" viewBox="0 0 16 16" fill="none" xmlns="http://www.w3.org/2000/svg">
<path d="M10.2596 3.47335L11.1996 5.35335C11.3263 5.61335 11.6663 5.86002 11.953 5.91335L13.653 6.19336C14.7396 6.37336 14.993 7.16002 14.213 7.94669L12.8863 9.27336C12.6663 9.49336 12.5396 9.92669 12.613 10.24L12.993 11.88C13.293 13.1734 12.5996 13.68 11.4596 13L9.8663 12.0534C9.57964 11.88 9.09964 11.88 8.81297 12.0534L7.21964 13C6.07964 13.6734 5.3863 13.1734 5.6863 11.88L6.0663 10.24C6.1263 9.92002 5.99964 9.48669 5.77964 9.26669L4.45297 7.94002C3.67297 7.16002 3.9263 6.37335 5.01297 6.18669L6.71297 5.90669C6.99964 5.86002 7.33964 5.60669 7.4663 5.34669L8.4063 3.46669C8.91964 2.45335 9.7463 2.45335 10.2596 3.47335Z" fill="#F79009"/>
<path d="M5.33594 3.8335H1.33594C1.0626 3.8335 0.835938 3.60683 0.835938 3.3335C0.835938 3.06016 1.0626 2.8335 1.33594 2.8335H5.33594C5.60927 2.8335 5.83594 3.06016 5.83594 3.3335C5.83594 3.60683 5.60927 3.8335 5.33594 3.8335Z" fill="#F79009"/>
<path d="M3.33594 13.1665H1.33594C1.0626 13.1665 0.835938 12.9398 0.835938 12.6665C0.835938 12.3932 1.0626 12.1665 1.33594 12.1665H3.33594C3.60927 12.1665 3.83594 12.3932 3.83594 12.6665C3.83594 12.9398 3.60927 13.1665 3.33594 13.1665Z" fill="#F79009"/>
<path d="M2.0026 8.5H1.33594C1.0626 8.5 0.835938 8.27333 0.835938 8C0.835938 7.72667 1.0626 7.5 1.33594 7.5H2.0026C2.27594 7.5 2.5026 7.72667 2.5026 8C2.5026 8.27333 2.27594 8.5 2.0026 8.5Z" fill="#F79009"/>
</svg>
