<svg width="16" height="16" viewBox="0 0 16 16" fill="none" xmlns="http://www.w3.org/2000/svg">
<g clip-path="url(#clip0_3046_56962)">
<path d="M7.02503 0.0530204C4.36618 0.349837 1.71669 2.50098 1.60734 5.57382C1.5386 7.45001 2.07131 8.85755 3.8569 9.25278C4.63175 7.88586 3.60695 7.58436 3.44761 6.59549C2.79304 2.54316 8.1217 -0.220364 10.9102 2.60877C12.8395 4.56776 11.5695 10.5947 8.45757 9.96827C5.4769 9.36995 9.91666 4.57245 7.53743 3.63045C5.60344 2.86497 4.57551 5.97218 5.49252 7.51563C4.95512 10.1698 3.79754 12.6709 4.2662 15.9999C5.78621 14.897 6.29861 12.7849 6.71884 10.5822C7.48276 11.0462 7.89049 11.5289 8.8653 11.6039C12.4599 11.882 14.4673 8.01553 13.9768 4.44904C13.541 1.28715 10.3853 -0.321906 7.02503 0.0530204Z" fill="#5F6C72"/>
</g>
<defs>
<clipPath id="clip0_3046_56962">
<rect width="16" height="16" fill="white"/>
</clipPath>
</defs>
</svg>
