<svg width="16" height="16" viewBox="0 0 16 16" fill="none" xmlns="http://www.w3.org/2000/svg">
<g clip-path="url(#clip0_3381_7620)">
<path d="M5.59745 7.99999C5.59745 6.67455 6.67168 5.59979 7.99716 5.59979C9.32265 5.59979 10.3975 6.67455 10.3975 7.99999C10.3975 9.32542 9.32265 10.4002 7.99716 10.4002C6.67168 10.4002 5.59745 9.32542 5.59745 7.99999ZM4.2999 7.99999C4.2999 10.0419 5.95516 11.6971 7.99716 11.6971C10.0392 11.6971 11.6944 10.0419 11.6944 7.99999C11.6944 5.95807 10.0392 4.30287 7.99716 4.30287C5.95516 4.30287 4.29996 5.95795 4.29996 7.99999H4.2999ZM10.9768 4.15628C10.9767 4.32717 11.0274 4.49423 11.1222 4.63635C11.2171 4.77847 11.352 4.88927 11.5099 4.95473C11.6677 5.02018 11.8415 5.03736 12.0091 5.00409C12.1767 4.97082 12.3307 4.8886 12.4516 4.76781C12.5725 4.64703 12.6548 4.49311 12.6882 4.32552C12.7216 4.15794 12.7046 3.98421 12.6392 3.82631C12.5739 3.66841 12.4632 3.53342 12.3212 3.43843C12.1791 3.34344 12.0121 3.2927 11.8412 3.29263H11.8408C11.6118 3.29273 11.3921 3.38375 11.2301 3.54568C11.0681 3.70762 10.977 3.92723 10.9768 4.15628ZM5.08825 13.8607C4.38625 13.8287 4.00469 13.7118 3.75112 13.613C3.41496 13.4821 3.1751 13.3263 2.92292 13.0744C2.67074 12.8226 2.51463 12.583 2.38434 12.2468C2.28549 11.9934 2.16856 11.6117 2.13665 10.9098C2.10174 10.1508 2.09477 9.92285 2.09477 8.0001C2.09477 6.07736 2.10232 5.85001 2.13665 5.09044C2.16862 4.38847 2.28641 4.00756 2.38434 3.75337C2.51521 3.41722 2.67108 3.17737 2.92292 2.9252C3.17476 2.67302 3.41438 2.51693 3.75112 2.38664C4.00457 2.2878 4.38625 2.17087 5.08825 2.13896C5.84721 2.10405 6.0752 2.09708 7.99716 2.09708C9.91912 2.09708 10.1473 2.10451 10.9069 2.13907C11.6089 2.17104 11.9899 2.28883 12.2441 2.38675C12.5802 2.51704 12.8201 2.67349 13.0723 2.92531C13.3245 3.17714 13.48 3.41733 13.6109 3.75349C13.7097 4.00693 13.8266 4.38858 13.8585 5.09055C13.8934 5.85013 13.9004 6.07747 13.9004 8.00022C13.9004 9.92296 13.8934 10.1503 13.8585 10.9099C13.8266 11.6119 13.7091 11.9934 13.6109 12.247C13.48 12.5831 13.3241 12.823 13.0723 13.0745C12.8204 13.3261 12.5802 13.4822 12.2441 13.6131C11.9906 13.7119 11.6089 13.8289 10.9069 13.8608C10.148 13.8957 9.91998 13.9027 7.99716 13.9027C6.07434 13.9027 5.84698 13.8957 5.08825 13.8608V13.8607ZM5.02863 0.843591C4.26211 0.878497 3.73834 1.00003 3.28092 1.17802C2.80748 1.36182 2.40617 1.6084 2.00543 2.00849C1.60469 2.40858 1.35873 2.80994 1.17492 3.28393C0.996928 3.74162 0.875387 4.26509 0.84048 5.03157C0.804997 5.79926 0.796875 6.0447 0.796875 7.99999C0.796875 9.95528 0.804997 10.2007 0.84048 10.9684C0.875387 11.7349 0.996928 12.2584 1.17492 12.716C1.35873 13.1895 1.60475 13.5916 2.00543 13.9915C2.40611 14.3914 2.80691 14.6376 3.28092 14.822C3.7392 14.9999 4.26211 15.1215 5.02863 15.1564C5.79675 15.1913 6.04179 15.2 7.99716 15.2C9.95253 15.2 10.198 15.1919 10.9657 15.1564C11.7323 15.1215 12.2557 14.9999 12.7134 14.822C13.1868 14.6376 13.5882 14.3916 13.9889 13.9915C14.3896 13.5914 14.6351 13.1895 14.8194 12.716C14.9974 12.2584 15.1195 11.7349 15.1538 10.9684C15.1888 10.2001 15.1969 9.95528 15.1969 7.99999C15.1969 6.0447 15.1888 5.79926 15.1538 5.03157C15.1189 4.26503 14.9974 3.74133 14.8194 3.28393C14.6351 2.81052 14.389 2.40922 13.9889 2.00849C13.5888 1.60777 13.1868 1.36182 12.714 1.17802C12.2557 1.00003 11.7322 0.877921 10.9663 0.843591C10.1984 0.808513 9.95311 0.799988 7.99803 0.799988C6.04295 0.799988 5.79704 0.808109 5.02892 0.843591" fill="white"/>
</g>
<defs>
<clipPath id="clip0_3381_7620">
<rect width="16" height="16" fill="white"/>
</clipPath>
</defs>
</svg>
