<svg width="45" height="45" viewBox="0 0 45 45" fill="none" xmlns="http://www.w3.org/2000/svg">
<path d="M0 12C0 5.37258 5.37258 0 12 0H33C39.6274 0 45 5.37258 45 12V33C45 39.6274 39.6274 45 33 45H12C5.37258 45 0 39.6274 0 33V12Z" fill="#FFF6F0"/>
<path d="M23.0141 29.8418C22.7307 29.9418 22.2641 29.9418 21.9807 29.8418C19.5641 29.0168 14.1641 25.5752 14.1641 19.7418C14.1641 17.1668 16.2391 15.0835 18.7974 15.0835C20.3141 15.0835 21.6557 15.8168 22.4974 16.9502C23.3391 15.8168 24.6891 15.0835 26.1974 15.0835C28.7557 15.0835 30.8307 17.1668 30.8307 19.7418C30.8307 25.5752 25.4307 29.0168 23.0141 29.8418Z" stroke="#FAA96A" stroke-width="1.5" stroke-linecap="round" stroke-linejoin="round"/>
</svg>
