<svg width="20" height="20" viewBox="0 0 20 20" fill="none" xmlns="http://www.w3.org/2000/svg">
<path d="M15 8.95866C14.6583 8.95866 14.375 8.67533 14.375 8.33366V6.66699C14.375 4.04199 13.6333 2.29199 10 2.29199C6.36667 2.29199 5.625 4.04199 5.625 6.66699V8.33366C5.625 8.67533 5.34167 8.95866 5 8.95866C4.65833 8.95866 4.375 8.67533 4.375 8.33366V6.66699C4.375 4.25033 4.95833 1.04199 10 1.04199C15.0417 1.04199 15.625 4.25033 15.625 6.66699V8.33366C15.625 8.67533 15.3417 8.95866 15 8.95866Z" fill="#196480"/>
<path d="M9.9974 16.0417C8.50573 16.0417 7.28906 14.825 7.28906 13.3333C7.28906 11.8417 8.50573 10.625 9.9974 10.625C11.4891 10.625 12.7057 11.8417 12.7057 13.3333C12.7057 14.825 11.4891 16.0417 9.9974 16.0417ZM9.9974 11.875C9.1974 11.875 8.53906 12.5333 8.53906 13.3333C8.53906 14.1333 9.1974 14.7917 9.9974 14.7917C10.7974 14.7917 11.4557 14.1333 11.4557 13.3333C11.4557 12.5333 10.7974 11.875 9.9974 11.875Z" fill="#196480"/>
<path d="M14.1641 18.958H5.83073C2.15573 18.958 1.03906 17.8413 1.03906 14.1663V12.4997C1.03906 8.82467 2.15573 7.70801 5.83073 7.70801H14.1641C17.8391 7.70801 18.9557 8.82467 18.9557 12.4997V14.1663C18.9557 17.8413 17.8391 18.958 14.1641 18.958ZM5.83073 8.95801C2.8474 8.95801 2.28906 9.52467 2.28906 12.4997V14.1663C2.28906 17.1413 2.8474 17.708 5.83073 17.708H14.1641C17.1474 17.708 17.7057 17.1413 17.7057 14.1663V12.4997C17.7057 9.52467 17.1474 8.95801 14.1641 8.95801H5.83073Z" fill="#196480"/>
</svg>
