<svg width="32" height="32" viewBox="0 0 32 32" fill="none" xmlns="http://www.w3.org/2000/svg">
<path d="M11.3307 25.3333H10.6641C5.33073 25.3333 2.66406 24 2.66406 17.3333V10.6667C2.66406 5.33332 5.33073 2.66666 10.6641 2.66666H21.3307C26.6641 2.66666 29.3307 5.33332 29.3307 10.6667V17.3333C29.3307 22.6667 26.6641 25.3333 21.3307 25.3333H20.6641C20.2507 25.3333 19.8507 25.5333 19.5974 25.8667L17.5974 28.5333C16.7174 29.7067 15.2774 29.7067 14.3974 28.5333L12.3974 25.8667C12.1841 25.5733 11.6907 25.3333 11.3307 25.3333Z" stroke="white" stroke-width="2" stroke-miterlimit="10" stroke-linecap="round" stroke-linejoin="round"/>
<path d="M21.3312 14.6667H21.3432" stroke="white" stroke-width="2" stroke-linecap="round" stroke-linejoin="round"/>
<path d="M15.9953 14.6667H16.0073" stroke="white" stroke-width="1.5" stroke-linecap="round" stroke-linejoin="round"/>
<path d="M10.6593 14.6667H10.6713" stroke="white" stroke-width="1.5" stroke-linecap="round" stroke-linejoin="round"/>
</svg>
