<svg width="32" height="32" viewBox="0 0 32 32" fill="none" xmlns="http://www.w3.org/2000/svg">
<path d="M16.0248 3.88C11.6115 3.88 8.02483 7.46667 8.02483 11.88V15.7333C8.02483 16.5467 7.67816 17.7867 7.26483 18.48L5.7315 21.0267C4.78483 22.6 5.43816 24.3467 7.1715 24.9333C12.9182 26.8533 19.1182 26.8533 24.8648 24.9333C26.4782 24.4 27.1848 22.4933 26.3048 21.0267L24.7715 18.48C24.3715 17.7867 24.0248 16.5467 24.0248 15.7333V11.88C24.0248 7.48 20.4248 3.88 16.0248 3.88Z" stroke="white" stroke-width="2" stroke-miterlimit="10" stroke-linecap="round"/>
<path d="M18.4958 4.26667C18.0825 4.14667 17.6558 4.05334 17.2158 4C15.9358 3.84 14.7092 3.93334 13.5625 4.26667C13.9492 3.28 14.9092 2.58667 16.0292 2.58667C17.1492 2.58667 18.1092 3.28 18.4958 4.26667Z" stroke="white" stroke-width="2" stroke-miterlimit="10" stroke-linecap="round" stroke-linejoin="round"/>
<path d="M20.0234 25.4133C20.0234 27.6133 18.2234 29.4133 16.0234 29.4133C14.9301 29.4133 13.9168 28.96 13.1968 28.24C12.4768 27.52 12.0234 26.5067 12.0234 25.4133" stroke="white" stroke-width="1.5" stroke-miterlimit="10"/>
</svg>
