<svg width="500" height="500" viewBox="0 0 500 500" fill="none" xmlns="http://www.w3.org/2000/svg">
<path d="M500 382.4H0V382.65H500V382.4Z" fill="#FDEEEE"/>
<path d="M449.899 398.49H428.219V398.74H449.899V398.49Z" fill="#FDEEEE"/>
<path d="M344.673 393.311H310.562V393.561H344.673V393.311Z" fill="#FDEEEE"/>
<path d="M441.124 389.211H396.594V389.461H441.124V389.211Z" fill="#FDEEEE"/>
<path d="M173.023 394.25H161.883V394.5H173.023V394.25Z" fill="#FDEEEE"/>
<path d="M152.968 394.25H114.578V394.5H152.968V394.25Z" fill="#FDEEEE"/>
<path d="M94.0125 390.029H66.3125V390.279H94.0125V390.029Z" fill="#FDEEEE"/>
<path d="M237.001 337.8H43.9109C42.3983 337.797 40.9485 337.195 39.8798 336.124C38.8112 335.053 38.2109 333.603 38.2109 332.09V60.66C38.2241 59.156 38.8301 57.718 39.8974 56.6582C40.9646 55.5985 42.4069 55.0026 43.9109 55H237.001C238.515 55 239.968 55.6016 241.039 56.6724C242.109 57.7433 242.711 59.1956 242.711 60.71V332.09C242.711 333.604 242.109 335.057 241.039 336.128C239.968 337.198 238.515 337.8 237.001 337.8ZM43.9109 55.2C42.4646 55.2026 41.0784 55.7791 40.0566 56.8027C39.0348 57.8264 38.4609 59.2136 38.4609 60.66V332.09C38.4609 333.536 39.0348 334.924 40.0566 335.947C41.0784 336.971 42.4646 337.547 43.9109 337.55H237.001C238.448 337.547 239.835 336.971 240.859 335.948C241.882 334.924 242.458 333.537 242.461 332.09V60.66C242.458 59.2127 241.882 57.8255 240.859 56.8021C239.835 55.7787 238.448 55.2026 237.001 55.2H43.9109Z" fill="#FDEEEE"/>
<path d="M453.31 337.8H260.21C258.696 337.797 257.246 337.195 256.175 336.125C255.105 335.054 254.503 333.604 254.5 332.09V60.66C254.516 59.1551 255.124 57.7171 256.193 56.6576C257.262 55.5981 258.705 55.0025 260.21 55H453.31C454.812 55.0052 456.252 55.6022 457.317 56.6617C458.382 57.7212 458.987 59.1578 459 60.66V332.09C459 333.601 458.401 335.05 457.335 336.121C456.268 337.191 454.821 337.795 453.31 337.8ZM260.21 55.2C258.763 55.2026 257.375 55.7787 256.352 56.8021C255.329 57.8255 254.753 59.2127 254.75 60.66V332.09C254.753 333.537 255.329 334.924 256.352 335.948C257.375 336.971 258.763 337.547 260.21 337.55H453.31C454.757 337.547 456.145 336.971 457.168 335.948C458.191 334.924 458.767 333.537 458.77 332.09V60.66C458.767 59.2127 458.191 57.8255 457.168 56.8021C456.145 55.7787 454.757 55.2026 453.31 55.2H260.21Z" fill="#FDEEEE"/>
<path d="M216.067 200.88L216.517 187.74L208.457 185.1C208.11 180.647 207.388 176.231 206.297 171.9L213.137 166.9L208.497 154.56L200.037 155.24C198.031 151.264 195.689 147.467 193.037 143.89L197.417 136.58L188.417 126.97L180.857 130.84C177.457 127.934 173.825 125.312 169.997 123L171.217 114.6L159.217 109.16L153.717 115.6C149.474 114.243 145.126 113.239 140.717 112.6L138.717 104.37L125.537 103.92L122.937 111.99C118.488 112.34 114.076 113.059 109.747 114.14L104.667 107.34L92.3269 111.95L93.0069 120.41C89.0332 122.446 85.2366 124.811 81.6569 127.48L74.2969 123L64.6469 132L68.5169 139.6C65.6102 142.982 63.0006 146.609 60.7169 150.44L52.3269 149.18L46.8469 161.18L53.3269 166.67C51.96 170.91 50.9563 175.259 50.3269 179.67L41.9969 181.76L41.5469 194.9L49.6469 197.54C49.9819 201.99 50.7013 206.403 51.7969 210.73L44.9569 215.73L49.6069 228.08L58.0669 227.4C60.0676 231.379 62.4097 235.176 65.0669 238.75L60.6769 246.06L69.6769 255.67L77.2369 251.8C80.6275 254.705 84.2533 257.324 88.0769 259.63L86.8169 268.02L98.8169 273.47L104.347 267.03C108.59 268.399 112.938 269.42 117.347 270.08L119.347 278.31L132.527 278.76L135.127 270.69C139.578 270.336 143.993 269.617 148.327 268.54L153.327 275.34L165.667 270.73L165.027 262.27C168.993 260.221 172.789 257.856 176.377 255.2L183.647 259.58L193.297 250.58L189.427 242.98C192.334 239.598 194.944 235.971 197.227 232.14L205.617 233.4L211.097 221.4L204.617 215.9C206.007 211.663 207.027 207.313 207.667 202.9L216.067 200.88ZM127.277 243.45C116.965 243.102 106.988 239.703 98.6077 233.683C90.2276 227.664 83.8211 219.294 80.1985 209.633C76.5759 199.972 75.9 189.453 78.2563 179.408C80.6126 169.363 85.8952 160.242 93.4359 153.199C100.977 146.157 110.437 141.509 120.619 139.844C130.802 138.178 141.25 139.57 150.641 143.844C160.033 148.117 167.945 155.08 173.379 163.851C178.813 172.622 181.523 182.808 181.167 193.12C180.692 206.939 174.749 220.005 164.643 229.443C154.537 238.881 141.097 243.919 127.277 243.45Z" fill="#FDEEEE"/>
<path d="M441.001 157.42L444.311 154.33L443.001 151.72C444 150.551 444.9 149.3 445.691 147.98L448.591 148.41L450.461 144.27L448.241 142.38C448.719 140.916 449.07 139.414 449.291 137.89L452.141 137.18L452.281 132.64L449.501 131.74C449.379 130.203 449.131 128.678 448.761 127.18L451.111 125.43L449.511 121.18L446.601 121.41C445.899 120.04 445.086 118.728 444.171 117.49L445.681 114.99L442.571 111.67L439.971 113C438.8 112.003 437.549 111.104 436.231 110.31L436.651 107.41L432.521 105.52L430.621 107.75C429.154 107.294 427.653 106.959 426.131 106.75L425.421 103.91L420.881 103.74L419.971 106.54C418.439 106.657 416.92 106.905 415.431 107.28L413.691 104.93L409.431 106.52L409.671 109.44C408.296 110.135 406.985 110.948 405.751 111.87L403.231 110.36L399.911 113.45L401.201 116C400.194 117.166 399.291 118.418 398.501 119.74L395.611 119.31L393.731 123.45L395.961 125.35C395.499 126.812 395.164 128.311 394.961 129.83L392.101 130.54L391.961 135.08L394.751 135.98C394.865 137.518 395.109 139.044 395.481 140.54L393.121 142.28L394.721 146.53L397.641 146.31C398.343 147.681 399.155 148.992 400.071 150.23L398.561 152.73L401.671 156.05L404.271 154.72C405.44 155.72 406.691 156.62 408.011 157.41L407.581 160.3L411.721 162.19L413.621 159.97C415.089 160.422 416.59 160.757 418.111 160.97L418.821 163.81L423.361 163.98L424.271 161.18C425.803 161.064 427.322 160.816 428.811 160.44L430.551 162.79L434.811 161.2L434.581 158.28C435.952 157.584 437.26 156.771 438.491 155.85L441.001 157.42ZM417.381 138.29C416.508 137.355 415.932 136.181 415.726 134.918C415.519 133.654 415.693 132.358 416.223 131.194C416.754 130.029 417.618 129.048 418.706 128.374C419.795 127.701 421.058 127.365 422.337 127.41C423.617 127.455 424.854 127.878 425.892 128.626C426.931 129.374 427.724 130.413 428.172 131.612C428.62 132.811 428.702 134.116 428.408 135.362C428.114 136.607 427.457 137.738 426.521 138.61C425.899 139.196 425.168 139.653 424.368 139.955C423.569 140.256 422.718 140.396 421.864 140.366C421.01 140.336 420.171 140.138 419.395 139.781C418.618 139.425 417.92 138.918 417.341 138.29H417.381Z" fill="#FDEEEE"/>
<path d="M319.998 292.339L309.658 285.189C308.645 281.466 307.251 277.857 305.498 274.419L308.148 264.019L293.148 247.959L282.588 249.889C279.275 247.905 275.767 246.266 272.118 244.999L265.698 234.189L243.698 233.439L236.558 243.779C232.839 244.792 229.234 246.183 225.798 247.929L215.398 245.279L199.338 260.279L201.268 270.819C199.285 274.139 197.65 277.654 196.388 281.309L185.578 287.729L184.828 309.729L195.178 316.869C196.175 320.613 197.566 324.24 199.328 327.689L196.648 337.999L211.648 354.059L222.138 352.139C225.476 354.127 229.007 355.768 232.678 357.039L239.088 367.829L261.088 368.589L268.218 358.249C271.97 357.236 275.609 355.842 279.078 354.089L289.418 356.729L305.488 341.729L303.558 331.189C305.547 327.87 307.183 324.35 308.438 320.689L319.248 314.269L319.998 292.339ZM251.548 325.729C246.664 325.563 241.939 323.951 237.971 321.099C234.003 318.247 230.969 314.283 229.254 309.707C227.539 305.131 227.219 300.149 228.335 295.391C229.451 290.634 231.953 286.314 235.524 282.977C239.095 279.641 243.575 277.439 248.397 276.649C253.22 275.859 258.168 276.516 262.617 278.539C267.066 280.561 270.815 283.856 273.391 288.009C275.967 292.162 277.253 296.985 277.088 301.869C276.859 308.42 274.039 314.611 269.249 319.085C264.459 323.558 258.089 325.948 251.538 325.729H251.548Z" fill="#FDEEEE"/>
<path d="M343.547 230H343.477L326.157 229.41C325.807 229.404 325.463 229.309 325.159 229.134C324.855 228.959 324.6 228.71 324.417 228.41L319.747 220.56C317.23 219.639 314.795 218.509 312.467 217.18L304.997 218.47C304.649 218.534 304.291 218.508 303.955 218.397C303.62 218.285 303.318 218.09 303.077 217.83L291.247 205.17C290.999 204.908 290.823 204.586 290.735 204.236C290.648 203.885 290.652 203.518 290.747 203.17L292.637 195.76C291.466 193.359 290.509 190.859 289.777 188.29L282.247 183.09C281.955 182.889 281.719 182.618 281.56 182.302C281.401 181.985 281.324 181.634 281.337 181.28L281.927 163.96C281.939 163.61 282.036 163.269 282.211 162.965C282.385 162.662 282.631 162.406 282.927 162.22L290.797 157.55C291.705 155.039 292.833 152.613 294.167 150.3L292.787 142.77C292.723 142.42 292.748 142.06 292.86 141.723C292.971 141.385 293.167 141.082 293.427 140.84L306.087 129.02C306.349 128.771 306.671 128.593 307.021 128.504C307.371 128.414 307.738 128.417 308.087 128.51L315.527 130.41C317.923 129.238 320.415 128.278 322.977 127.54L328.177 120.01C328.371 119.711 328.64 119.469 328.959 119.309C329.277 119.149 329.632 119.077 329.987 119.1L347.297 119.7C347.649 119.707 347.994 119.803 348.3 119.977C348.605 120.152 348.862 120.401 349.047 120.7L353.717 128.56C356.217 129.477 358.632 130.608 360.937 131.94L368.497 130.55C368.845 130.485 369.204 130.51 369.54 130.622C369.876 130.734 370.178 130.929 370.417 131.19L382.247 143.85C382.494 144.113 382.669 144.435 382.757 144.785C382.844 145.135 382.841 145.502 382.747 145.85L380.847 153.28C382.019 155.676 382.982 158.169 383.727 160.73L391.247 165.93C391.539 166.13 391.776 166.402 391.935 166.718C392.094 167.034 392.171 167.386 392.157 167.74L391.567 185.05C391.556 185.401 391.458 185.744 391.284 186.049C391.11 186.354 390.864 186.612 390.567 186.8L382.697 191.47C381.784 193.975 380.656 196.398 379.327 198.71L380.707 206.25C380.772 206.598 380.747 206.957 380.635 207.293C380.523 207.628 380.328 207.93 380.067 208.17L367.327 220C367.065 220.248 366.743 220.425 366.393 220.512C366.043 220.6 365.676 220.596 365.327 220.5L357.927 218.61C355.516 219.776 353.011 220.736 350.437 221.48L345.287 229C345.102 229.297 344.846 229.543 344.543 229.718C344.239 229.892 343.897 229.989 343.547 230ZM327.457 225.23L342.457 225.74L347.457 218.55C347.734 218.13 348.159 217.83 348.647 217.71C351.461 216.94 354.192 215.892 356.797 214.58C357.252 214.361 357.768 214.308 358.257 214.43L365.257 216.22L376.257 205.97L374.997 198.74C374.9 198.235 374.993 197.711 375.257 197.27C376.743 194.794 377.966 192.17 378.907 189.44C379.066 188.945 379.401 188.525 379.847 188.26L387.377 183.8L387.887 168.8L380.687 163.8C380.308 163.541 380.024 163.165 379.877 162.73C379.877 162.68 379.877 162.62 379.877 162.56C379.107 159.796 378.062 157.116 376.757 154.56C376.526 154.102 376.469 153.576 376.597 153.08L378.397 146L368.147 135L360.957 136.32C360.455 136.411 359.937 136.319 359.497 136.06C357.016 134.572 354.389 133.342 351.657 132.39C351.501 132.34 351.35 132.273 351.207 132.19C350.919 132.01 350.679 131.763 350.507 131.47L345.997 123.92L330.997 123.4L325.997 130.61C325.699 131.033 325.259 131.334 324.757 131.46C321.972 132.221 319.272 133.263 316.697 134.57C316.244 134.802 315.72 134.858 315.227 134.73L308.147 132.93L297.147 143.18L298.467 150.35C298.546 150.802 298.479 151.268 298.277 151.68L298.177 151.85C296.69 154.336 295.467 156.97 294.527 159.71C294.362 160.18 294.036 160.576 293.607 160.83L286.077 165.3L285.567 180.3L292.777 185.3C293.188 185.581 293.486 185.999 293.617 186.48C294.367 189.288 295.409 192.01 296.727 194.6C296.799 194.747 296.856 194.902 296.897 195.06C296.973 195.389 296.973 195.731 296.897 196.06L295.097 203.06L305.347 214.06L312.487 212.75C312.986 212.659 313.501 212.751 313.937 213.01C316.437 214.495 319.081 215.725 321.827 216.68C322.323 216.827 322.742 217.16 322.997 217.61L327.457 225.23ZM336.727 206.26C336.357 206.26 335.987 206.26 335.617 206.26C327.304 206.114 319.386 202.69 313.585 196.734C307.784 190.778 304.57 182.771 304.644 174.457C304.717 166.143 308.071 158.195 313.976 152.342C319.881 146.489 327.858 143.205 336.172 143.205C344.487 143.205 352.464 146.489 358.369 152.342C364.274 158.195 367.628 166.143 367.701 174.457C367.774 182.771 364.561 190.778 358.76 196.734C352.959 202.69 345.04 206.114 336.727 206.26ZM336.727 147.17C329.463 147.295 322.542 150.285 317.471 155.489C312.401 160.692 309.591 167.688 309.653 174.953C309.716 182.219 312.646 189.165 317.806 194.28C322.965 199.396 329.937 202.266 337.202 202.266C344.468 202.266 351.439 199.396 356.599 194.28C361.759 189.165 364.689 182.219 364.751 174.953C364.814 167.688 362.004 160.692 356.933 155.489C351.863 150.285 344.942 147.295 337.677 147.17H336.727Z" fill="#FDEEEE"/>
<path d="M383.444 105.32L376.264 103.4L374.344 96.2199L377.154 93.4199L380.114 99.5499L386.254 102.52L383.444 105.32Z" fill="#FDEEEE"/>
<path d="M383.878 100.52C384.189 100.209 384.435 99.8404 384.603 99.4346C384.772 99.0288 384.858 98.5939 384.858 98.1547C384.858 97.7155 384.772 97.2805 384.603 96.8748C384.435 96.469 384.189 96.1003 383.878 95.7897C383.568 95.4791 383.199 95.2327 382.793 95.0647C382.388 94.8966 381.953 94.8101 381.513 94.8101C381.074 94.8101 380.639 94.8966 380.234 95.0647C379.828 95.2327 379.459 95.4791 379.148 95.7897L382.718 90.4297L387.498 92.8497L388.548 97.8497L383.878 100.52Z" fill="#FDEEEE"/>
<path d="M376.578 94.0002L381.838 88.7402L388.998 90.6502L390.928 97.8202L385.668 103.08L378.498 101.15L376.578 94.0002ZM386.128 98.3002C386.596 97.8316 386.915 97.2347 387.044 96.5849C387.173 95.9352 387.106 95.2618 386.853 94.6499C386.599 94.0379 386.17 93.5149 385.619 93.147C385.068 92.779 384.421 92.5826 383.758 92.5826C383.096 92.5826 382.448 92.779 381.897 93.147C381.347 93.5149 380.917 94.0379 380.663 94.6499C380.41 95.2618 380.343 95.9352 380.472 96.5849C380.601 97.2347 380.92 97.8316 381.388 98.3002C382.022 98.9217 382.875 99.2682 383.762 99.2644C384.65 99.2607 385.5 98.907 386.128 98.2802V98.3002Z" fill="#FCDEDE"/>
<path d="M90.2209 296.71L94.0709 295.67L95.1009 291.82L93.6009 290.32L92.0109 293.61L88.7109 295.2L90.2209 296.71Z" fill="#FDEEEE"/>
<path d="M89.9975 294.131C89.6966 293.787 89.5376 293.342 89.5527 292.885C89.5679 292.429 89.756 291.995 90.079 291.672C90.4019 291.349 90.8356 291.161 91.2921 291.146C91.7487 291.131 92.1938 291.29 92.5375 291.591L90.6275 288.721L87.9975 290.001L87.4375 292.701L89.9975 294.131Z" fill="#FDEEEE"/>
<path d="M93.8966 290.621L91.0766 287.801L87.2266 288.801L86.2266 292.651L88.9966 295.501L92.8466 294.501L93.8966 290.621ZM88.7766 292.931C88.5912 292.768 88.4411 292.57 88.3356 292.347C88.2301 292.124 88.1714 291.882 88.1633 291.636C88.1551 291.39 88.1976 291.145 88.2881 290.915C88.3786 290.686 88.5153 290.478 88.6895 290.304C88.8637 290.129 89.0719 289.993 89.3011 289.902C89.5303 289.812 89.7756 289.769 90.0219 289.778C90.2682 289.786 90.5102 289.844 90.7329 289.95C90.9556 290.055 91.1542 290.205 91.3166 290.391C91.6174 290.734 91.7764 291.18 91.7613 291.636C91.7462 292.093 91.5581 292.526 91.2351 292.849C90.9121 293.172 90.4784 293.36 90.0219 293.376C89.5654 293.391 89.1202 293.232 88.7766 292.931Z" fill="#FCDEDE"/>
<path d="M76.3616 85.6603L79.5616 88.8603C79.9618 89.2536 80.5005 89.4739 81.0616 89.4739C81.6227 89.4739 82.1614 89.2536 82.5616 88.8603C82.9526 88.4588 83.1713 87.9206 83.1713 87.3603C83.1713 86.7999 82.9526 86.2617 82.5616 85.8603L79.3716 82.6702C78.9702 82.2793 78.432 82.0605 77.8716 82.0605C77.3113 82.0605 76.7731 82.2793 76.3716 82.6702C75.98 83.0687 75.7597 83.6045 75.7578 84.1632C75.756 84.7219 75.9727 85.2592 76.3616 85.6603Z" fill="#FCDEDE"/>
<path d="M74.1092 77.7095C74.9443 77.4774 75.8289 77.494 76.6546 77.7576C77.4802 78.0211 78.211 78.5201 78.7571 79.1931C79.3031 79.8662 79.6408 80.684 79.7285 81.5463C79.8163 82.4085 79.6504 83.2776 79.2511 84.0469C78.8518 84.8161 78.2366 85.4521 77.481 85.8766C76.7253 86.3011 75.8622 86.4957 74.9975 86.4365C74.1328 86.3773 73.3043 86.0669 72.6135 85.5434C71.9228 85.0199 71.4 84.306 71.1092 83.4895C70.9247 82.9131 70.8559 82.3059 70.907 81.7028C70.958 81.0997 71.1279 80.5126 71.4067 79.9754C71.6855 79.4382 72.0678 78.9614 72.5317 78.5725C72.9955 78.1837 73.5316 77.8904 74.1092 77.7095Z" fill="#FDEEEE"/>
<path d="M70.6306 82.9548L71.0938 84.2441L80.599 80.8295L80.1359 79.5402L70.6306 82.9548Z" fill="#FCDEDE"/>
<path d="M249.999 427.56C357.082 427.56 443.889 422.492 443.889 416.24C443.889 409.988 357.082 404.92 249.999 404.92C142.917 404.92 56.1094 409.988 56.1094 416.24C56.1094 422.492 142.917 427.56 249.999 427.56Z" fill="#FCDEDE"/>
<path d="M222.445 304.841C223.835 282.441 221.285 241.711 263.395 247.111C308.525 252.881 295.615 305.661 295.615 305.661L222.445 304.841Z" fill="#8F3535"/>
<path d="M251.505 291.381C261.656 291.381 269.885 283.152 269.885 273.001C269.885 262.85 261.656 254.621 251.505 254.621C241.354 254.621 233.125 262.85 233.125 273.001C233.125 283.152 241.354 291.381 251.505 291.381Z" fill="white"/>
<path d="M253.93 254.651C245.22 253.171 235.93 259.581 235 266.081L269.51 269.261C268.29 261.851 260.83 255.831 253.93 254.651Z" fill="#8F3535"/>
<path d="M265.573 272.54C265.323 277.35 262.703 281.12 259.723 280.96C256.743 280.8 254.523 276.79 254.723 271.96C254.923 267.13 257.593 263.38 260.573 263.54C263.553 263.7 265.813 267.74 265.573 272.54Z" fill="#8F3535"/>
<path d="M251.505 292.381C247.672 292.381 243.925 291.244 240.738 289.115C237.551 286.985 235.067 283.959 233.6 280.418C232.133 276.876 231.75 272.98 232.497 269.22C233.245 265.461 235.091 262.008 237.801 259.297C240.512 256.587 243.965 254.741 247.724 253.993C251.484 253.246 255.38 253.629 258.921 255.096C262.463 256.563 265.489 259.047 267.619 262.234C269.748 265.421 270.885 269.168 270.885 273.001C270.88 278.139 268.836 283.066 265.203 286.699C261.57 290.332 256.643 292.376 251.505 292.381ZM251.505 255.631C248.067 255.631 244.707 256.651 241.848 258.561C238.99 260.471 236.762 263.186 235.447 266.362C234.132 269.539 233.788 273.034 234.46 276.405C235.131 279.777 236.787 282.874 239.219 285.304C241.651 287.734 244.748 289.389 248.12 290.058C251.493 290.728 254.987 290.382 258.163 289.065C261.339 287.748 264.052 285.519 265.961 282.66C267.869 279.8 268.887 276.439 268.885 273.001C268.88 268.394 267.047 263.978 263.788 260.721C260.53 257.464 256.112 255.634 251.505 255.631Z" fill="#EE5858"/>
<path opacity="0.3" d="M290.485 304.281H290.365C290.301 304.267 290.24 304.24 290.186 304.202C290.132 304.164 290.087 304.115 290.053 304.059C290.018 304.003 289.995 303.941 289.985 303.876C289.975 303.811 289.979 303.744 289.995 303.681C289.995 303.551 293.215 289.991 289.905 276.281C289.873 276.148 289.895 276.008 289.966 275.892C290.038 275.776 290.152 275.693 290.285 275.661C290.417 275.629 290.557 275.651 290.674 275.722C290.79 275.794 290.873 275.908 290.905 276.041C294.275 290.041 291.025 303.781 290.995 303.911C290.965 304.022 290.898 304.119 290.805 304.186C290.713 304.254 290.599 304.287 290.485 304.281Z" fill="white"/>
<path opacity="0.3" d="M287.694 268.76C287.598 268.759 287.504 268.732 287.423 268.68C287.342 268.629 287.277 268.557 287.234 268.47C285.991 265.723 284.398 263.149 282.494 260.81C282.411 260.708 282.372 260.577 282.385 260.446C282.398 260.315 282.463 260.194 282.564 260.11C282.615 260.068 282.674 260.036 282.738 260.016C282.801 259.997 282.868 259.99 282.934 259.997C283 260.003 283.064 260.023 283.123 260.054C283.181 260.086 283.233 260.129 283.274 260.18C285.225 262.586 286.862 265.231 288.144 268.05C288.173 268.109 288.189 268.173 288.192 268.239C288.196 268.304 288.186 268.37 288.164 268.431C288.141 268.493 288.107 268.549 288.062 268.597C288.018 268.645 287.964 268.684 287.904 268.71C287.838 268.741 287.767 268.758 287.694 268.76Z" fill="white"/>
<path d="M128.724 409.921H128.354C127.028 409.883 125.771 409.321 124.86 408.357C123.948 407.393 123.457 406.107 123.494 404.781C123.531 403.454 124.094 402.197 125.058 401.286C126.022 400.375 127.308 399.883 128.634 399.921H128.724C131.614 399.921 138.564 396.411 153.104 373.491C153.49 372.882 154.003 372.364 154.608 371.972C155.213 371.58 155.895 371.323 156.609 371.22C157.322 371.116 158.049 371.168 158.741 371.372C159.432 371.576 160.071 371.927 160.614 372.401C172.033 382.217 184.486 390.76 197.754 397.881C198.368 398.16 198.919 398.56 199.374 399.058C199.83 399.556 200.179 400.141 200.402 400.777C200.626 401.414 200.718 402.089 200.673 402.762C200.629 403.435 200.448 404.092 200.143 404.694C199.838 405.295 199.414 405.829 198.897 406.263C198.381 406.696 197.781 407.021 197.136 407.216C196.491 407.412 195.812 407.476 195.142 407.402C194.471 407.329 193.822 407.121 193.234 406.791C180.903 400.238 169.247 392.487 158.434 383.651C146.244 402.001 137.204 409.921 128.724 409.921Z" fill="#8F3535"/>
<path d="M159.67 371.5H159.24C158.454 371.386 157.745 370.966 157.269 370.33C156.793 369.695 156.588 368.896 156.7 368.11C157.41 363.11 156.53 344.48 150.22 329.98C149.94 329.339 149.892 328.621 150.086 327.949C150.28 327.277 150.702 326.694 151.28 326.3C164.98 316.97 194.16 315.85 195.4 315.81C195.794 315.797 196.186 315.862 196.555 316C196.924 316.139 197.262 316.349 197.55 316.618C197.838 316.888 198.07 317.211 198.233 317.57C198.396 317.929 198.486 318.316 198.5 318.71C198.513 319.104 198.448 319.497 198.309 319.866C198.171 320.235 197.961 320.573 197.692 320.861C197.422 321.149 197.099 321.381 196.74 321.544C196.381 321.707 195.994 321.797 195.6 321.81C195.33 321.81 169.82 322.81 156.72 330.01C162.3 344.45 163.57 362.44 162.64 368.95C162.532 369.66 162.173 370.308 161.628 370.776C161.083 371.244 160.388 371.501 159.67 371.5Z" fill="#8F3535"/>
<path d="M164.708 367.62C162.708 362.91 153.708 363.44 148.438 367.48C145.618 369.63 141.798 376.12 141.438 378.48C141.318 379.041 141.336 379.623 141.49 380.175C141.645 380.727 141.931 381.234 142.324 381.651C142.718 382.068 143.207 382.383 143.749 382.57C144.292 382.756 144.871 382.808 145.438 382.72C148.888 382.42 153.618 377.41 153.618 377.41C150.468 380.5 154.538 382.68 160.618 378.21C163.938 375.72 166.938 372.89 164.708 367.62Z" fill="#EE5858"/>
<path d="M336.706 306.161C336.66 306.171 336.612 306.171 336.566 306.161C336.502 306.143 336.442 306.114 336.39 306.073C336.338 306.032 336.295 305.981 336.263 305.923C336.232 305.865 336.212 305.801 336.206 305.736C336.199 305.67 336.206 305.604 336.226 305.541C337.556 300.901 339.006 298.071 340.916 296.541C340.616 295.465 340.672 294.322 341.076 293.281C341.542 292.065 342.364 291.02 343.436 290.281C343.144 289.966 342.938 289.583 342.834 289.166C342.731 288.75 342.735 288.315 342.846 287.901C343.208 286.648 343.957 285.542 344.986 284.741C344.615 284.326 344.411 283.787 344.416 283.231C344.416 280.231 349.926 275.711 356.176 274.851C356.308 274.832 356.443 274.867 356.55 274.948C356.657 275.028 356.727 275.148 356.746 275.281C356.764 275.413 356.729 275.548 356.649 275.655C356.568 275.762 356.448 275.832 356.316 275.851C350.376 276.661 345.396 280.961 345.416 283.231C345.414 283.569 345.543 283.895 345.776 284.141C347.121 283.228 348.634 282.593 350.228 282.272C351.821 281.951 353.462 281.951 355.056 282.271C358.126 282.861 359.376 283.511 359.236 284.441C358.956 286.191 352.426 286.561 348.046 286.041C347.261 285.969 346.497 285.749 345.796 285.391C344.853 286.062 344.151 287.019 343.796 288.121C343.71 288.412 343.711 288.722 343.798 289.013C343.884 289.304 344.054 289.564 344.286 289.761C346.146 288.761 348.756 288.401 352.206 289.161C356.736 290.161 356.906 290.711 357.016 291.041C357.051 291.157 357.054 291.281 357.024 291.399C356.994 291.517 356.932 291.625 356.846 291.711C355.896 292.711 348.946 292.241 345.456 291.381C345.034 291.284 344.627 291.133 344.246 290.931C343.213 291.558 342.418 292.512 341.986 293.641C341.697 294.371 341.617 295.167 341.756 295.941C341.934 295.834 342.117 295.737 342.306 295.651C344.376 294.651 346.876 294.831 349.966 296.151C351.966 297.021 352.966 297.801 353.066 298.591C353.07 298.793 353.019 298.993 352.919 299.169C352.819 299.346 352.672 299.491 352.496 299.591C350.966 300.591 345.626 300.451 342.846 298.971C342.206 298.623 341.674 298.108 341.306 297.481C339.676 298.981 338.356 301.651 337.156 305.841C337.119 305.931 337.058 306.01 336.978 306.067C336.898 306.123 336.803 306.156 336.706 306.161ZM342.126 296.831C342.404 297.348 342.828 297.772 343.346 298.051C345.606 299.251 350.046 299.521 351.706 298.851C352.046 298.711 352.096 298.601 352.096 298.601C352.096 298.601 352.046 298.041 349.596 296.991C346.796 295.791 344.596 295.621 342.766 296.471C342.545 296.577 342.331 296.697 342.126 296.831ZM345.466 290.261L345.716 290.331C348.972 291.081 352.323 291.334 355.656 291.081C354.474 290.642 353.256 290.308 352.016 290.081C349.862 289.497 347.584 289.56 345.466 290.261ZM346.726 284.641C347.187 284.806 347.668 284.914 348.156 284.961C353.156 285.551 357.546 284.861 358.156 284.231C357.986 284.081 357.316 283.651 354.836 283.181C352.045 282.624 349.147 283.146 346.726 284.641Z" fill="#8F3535"/>
<path d="M206.528 408.251C207.188 408.041 206.968 407.401 206.228 407.401H192.688C166.908 404.671 148.898 408.331 160.248 409.191C171.598 410.051 159.448 409.871 151.158 413.011C142.868 416.151 212.808 416.941 219.158 413.011C224.998 409.391 197.388 411.181 206.528 408.251Z" fill="#8F3535"/>
<path d="M303.463 412.241L185.663 408.331L180.773 294.111L319.883 297.221L303.463 412.241Z" fill="#EE5858"/>
<path d="M222.449 410.051C222.323 410.051 222.201 410.004 222.109 409.919C222.016 409.833 221.959 409.716 221.949 409.591L212.509 294.871C212.5 294.739 212.544 294.608 212.63 294.508C212.715 294.407 212.837 294.343 212.969 294.331C213.1 294.325 213.229 294.369 213.329 294.454C213.43 294.54 213.494 294.66 213.509 294.791L222.999 409.511C223.004 409.576 222.997 409.642 222.977 409.705C222.956 409.768 222.924 409.826 222.881 409.876C222.838 409.927 222.786 409.968 222.727 409.998C222.669 410.028 222.605 410.046 222.539 410.051H222.449Z" fill="#8F3535"/>
<path d="M303.469 412.241L335.129 407.421L345.099 301.211L319.889 297.221L303.469 412.241Z" fill="#EE5858"/>
<path opacity="0.2" d="M303.469 412.241L335.129 407.421L345.099 301.211L319.889 297.221L303.469 412.241Z" fill="#191C1F"/>
<path d="M195.724 386.321L192.824 318.451C192.752 316.775 193.025 315.101 193.626 313.534C194.227 311.967 195.143 310.54 196.318 309.342C197.492 308.143 198.9 307.198 200.454 306.565C202.008 305.932 203.676 305.624 205.354 305.661L293.414 307.661C295.148 307.7 296.854 308.107 298.419 308.853C299.985 309.6 301.374 310.67 302.496 311.993C303.617 313.316 304.446 314.862 304.926 316.528C305.407 318.195 305.529 319.944 305.284 321.661L295.524 390.001C295.101 392.994 293.589 395.726 291.277 397.673C288.965 399.62 286.015 400.645 282.994 400.551L207.604 398.051C204.509 397.956 201.564 396.694 199.361 394.518C197.158 392.343 195.858 389.415 195.724 386.321Z" fill="#8F3535"/>
<path d="M205.249 326.49L218.869 326.92L218.759 330.43L210.229 330.16L210.149 332.78L218.059 333.03L217.949 336.39L210.039 336.13L209.939 339.38L218.709 339.66L218.589 343.38L204.719 342.94L205.249 326.49Z" fill="white"/>
<path d="M221.398 343.471L221.918 327.021L230.398 327.292C231.614 327.285 232.824 327.461 233.988 327.811C234.814 328.088 235.52 328.638 235.988 329.371C236.336 329.905 236.57 330.505 236.676 331.134C236.781 331.762 236.756 332.405 236.602 333.023C236.449 333.642 236.169 334.222 235.781 334.727C235.393 335.233 234.906 335.653 234.348 335.961C233.78 336.254 233.169 336.457 232.538 336.561C233.003 336.711 233.445 336.927 233.848 337.202C234.14 337.472 234.402 337.774 234.628 338.102C234.886 338.413 235.114 338.748 235.308 339.102L237.618 343.952L231.878 343.762L229.318 338.651C229.115 338.164 228.816 337.721 228.438 337.352C228.08 337.092 227.651 336.946 227.208 336.931H226.758L226.548 343.602L221.398 343.471ZM226.818 333.852L228.958 333.922C229.413 333.894 229.864 333.83 230.308 333.732C230.643 333.681 230.947 333.506 231.158 333.241C231.375 332.975 231.498 332.645 231.508 332.301C231.527 332.073 231.495 331.843 231.414 331.628C231.332 331.414 231.204 331.22 231.038 331.061C230.48 330.701 229.821 330.529 229.158 330.572L226.918 330.501L226.818 333.852Z" fill="white"/>
<path d="M239.273 344.001L239.793 327.551L248.263 327.821C249.479 327.814 250.69 327.989 251.853 328.341C252.68 328.614 253.387 329.165 253.853 329.901C254.361 330.702 254.599 331.645 254.533 332.591C254.536 333.389 254.323 334.173 253.916 334.859C253.51 335.546 252.925 336.11 252.223 336.491C251.654 336.782 251.044 336.984 250.413 337.091C250.876 337.24 251.313 337.455 251.713 337.731C252.012 337.994 252.278 338.293 252.503 338.621C252.759 338.933 252.987 339.268 253.183 339.621L255.493 344.461L249.753 344.281L247.193 339.171C246.989 338.684 246.69 338.242 246.313 337.871C245.956 337.601 245.521 337.454 245.073 337.451H244.633L244.413 344.131L239.273 344.001ZM244.683 334.381L246.833 334.441C247.288 334.424 247.74 334.363 248.183 334.261C248.516 334.211 248.817 334.036 249.023 333.771C249.247 333.509 249.371 333.176 249.373 332.831C249.395 332.603 249.365 332.373 249.285 332.158C249.206 331.943 249.079 331.749 248.913 331.591C248.356 331.221 247.69 331.049 247.023 331.101L244.793 331.031L244.683 334.381Z" fill="white"/>
<path d="M256.319 336.362C256.241 335.214 256.419 334.063 256.84 332.992C257.26 331.921 257.913 330.957 258.75 330.168C259.588 329.379 260.59 328.786 261.684 328.43C262.778 328.075 263.937 327.966 265.079 328.112C266.23 328.074 267.378 328.267 268.453 328.681C269.529 329.095 270.51 329.721 271.339 330.522C272.078 331.373 272.637 332.367 272.981 333.441C273.325 334.516 273.446 335.649 273.339 336.772C273.347 338.405 272.963 340.017 272.219 341.472C271.544 342.662 270.536 343.628 269.319 344.252C267.884 344.938 266.295 345.241 264.709 345.132C263.126 345.145 261.561 344.803 260.129 344.132C258.909 343.47 257.913 342.46 257.269 341.232C256.512 339.726 256.184 338.041 256.319 336.362ZM261.399 336.542C261.249 337.802 261.534 339.076 262.209 340.152C262.524 340.504 262.907 340.789 263.335 340.989C263.762 341.19 264.226 341.303 264.698 341.32C265.17 341.338 265.641 341.261 266.083 341.092C266.525 340.924 266.928 340.669 267.269 340.342C268.01 339.219 268.361 337.884 268.269 336.542C268.403 335.336 268.109 334.122 267.439 333.112C267.135 332.762 266.761 332.482 266.34 332.291C265.919 332.099 265.461 332.001 264.999 332.002C264.532 331.968 264.064 332.041 263.629 332.214C263.194 332.387 262.804 332.656 262.489 333.002C261.731 334.022 261.347 335.272 261.399 336.542Z" fill="white"/>
<path d="M275.906 345.21L276.426 328.75L284.896 329.02C286.112 329.018 287.321 329.193 288.486 329.54C289.309 329.821 290.014 330.37 290.486 331.1C290.991 331.902 291.229 332.844 291.166 333.79C291.171 334.59 290.959 335.376 290.552 336.064C290.145 336.753 289.559 337.318 288.856 337.7C288.285 337.983 287.675 338.182 287.046 338.29C287.509 338.442 287.947 338.661 288.346 338.94C288.645 339.203 288.911 339.502 289.136 339.83C289.394 340.141 289.622 340.476 289.816 340.83L292.126 345.68L286.386 345.5L283.826 340.38C283.623 339.895 283.323 339.456 282.946 339.09C282.588 338.822 282.154 338.671 281.706 338.66H281.266L281.046 345.34L275.906 345.21ZM281.316 335.58L283.466 335.65C283.921 335.633 284.373 335.572 284.816 335.47C285.147 335.417 285.447 335.242 285.656 334.98C285.892 334.701 286.017 334.345 286.006 333.98C286.028 333.754 285.998 333.525 285.918 333.312C285.838 333.099 285.711 332.907 285.546 332.75C284.988 332.38 284.323 332.208 283.656 332.26L281.426 332.19L281.316 335.58Z" fill="white"/>
<path d="M283.996 373.161C283.808 373.165 283.622 373.128 283.45 373.054C283.277 372.98 283.122 372.87 282.996 372.731L274.436 363.361L265.196 371.801C264.94 372.036 264.601 372.159 264.254 372.144C263.907 372.129 263.581 371.977 263.346 371.721L254.786 362.351L245.546 370.791C245.29 371.026 244.951 371.149 244.604 371.134C244.257 371.119 243.931 370.967 243.696 370.711L235.126 361.341L225.896 369.781C225.761 369.903 225.603 369.996 225.431 370.055C225.259 370.113 225.077 370.136 224.896 370.121C224.549 370.101 224.223 369.946 223.986 369.691L215.426 360.331L206.196 368.761C205.938 368.996 205.598 369.12 205.249 369.105C204.901 369.09 204.572 368.938 204.336 368.681C204.219 368.554 204.129 368.406 204.07 368.244C204.011 368.082 203.985 367.91 203.994 367.737C204.002 367.565 204.045 367.396 204.119 367.241C204.193 367.085 204.297 366.946 204.426 366.831L214.626 357.501C214.884 357.266 215.224 357.142 215.572 357.157C215.921 357.172 216.249 357.325 216.486 357.581L225.046 366.951L234.276 358.511C234.538 358.281 234.878 358.16 235.226 358.171C235.574 358.19 235.901 358.344 236.136 358.601L244.696 367.971L253.936 359.531C254.062 359.414 254.21 359.323 254.372 359.263C254.534 359.204 254.706 359.177 254.878 359.184C255.05 359.192 255.219 359.233 255.375 359.306C255.531 359.38 255.67 359.483 255.786 359.611L264.346 368.981L273.586 360.541C273.842 360.307 274.181 360.183 274.527 360.198C274.874 360.213 275.201 360.365 275.436 360.621L284.996 371.001C285.167 371.192 285.278 371.429 285.317 371.682C285.356 371.935 285.32 372.194 285.214 372.428C285.108 372.661 284.936 372.858 284.72 372.996C284.504 373.133 284.252 373.204 283.996 373.201V373.161Z" fill="white"/>
<path d="M125.746 414.672L119.486 411.682L113.906 384.512L116.936 381.182L125.746 414.672Z" fill="#EE5858"/>
<path d="M125.747 414.672L134.057 409.812L126.938 387.432L116.938 381.182L125.747 414.672Z" fill="#EE5858"/>
<path opacity="0.2" d="M125.747 414.672L134.057 409.812L126.938 387.432L116.938 381.182L125.747 414.672Z" fill="#191C1F"/>
<path d="M261.994 419.611H261.304C259.978 419.575 258.721 419.014 257.808 418.051C256.896 417.088 256.404 415.802 256.439 414.476C256.475 413.15 257.036 411.892 257.999 410.98C258.962 410.068 260.248 409.575 261.574 409.611C269.274 409.861 285.574 405.131 294.894 396.091C295.457 395.539 296.142 395.128 296.894 394.891C312.684 390.151 318.554 399.721 318.794 400.131L310.194 405.221C310.225 405.285 310.261 405.345 310.304 405.401C310.214 405.271 307.974 402.401 300.854 404.161C289.164 414.821 271.224 419.611 261.994 419.611Z" fill="#8F3535"/>
<path d="M261.39 426.251L243.18 425.111L241.75 391.531L266.22 392.441L261.39 426.251Z" fill="#EE5858"/>
<path d="M261.383 426.251L265.643 422.011L268.283 401.081L266.213 392.441L261.383 426.251Z" fill="#EE5858"/>
<path opacity="0.2" d="M261.383 426.251L265.643 422.011L268.283 401.081L266.213 392.441L261.383 426.251Z" fill="#191C1F"/>
<path d="M366.907 413.541C366.253 413.54 365.617 413.326 365.097 412.931C354.697 405.031 340.647 391.001 335.257 377.471C335.176 377.275 335.119 377.07 335.087 376.861C332.457 361.221 329.947 328.311 329.837 326.921C329.807 326.527 329.855 326.131 329.979 325.756C330.102 325.38 330.298 325.033 330.556 324.734C331.077 324.129 331.816 323.756 332.612 323.696C333.407 323.636 334.194 323.895 334.799 324.416C335.404 324.936 335.777 325.675 335.837 326.471C335.837 326.801 338.407 360.031 340.967 375.541C346.347 388.701 360.967 402.211 368.747 408.151C369.248 408.531 369.616 409.059 369.801 409.66C369.986 410.261 369.977 410.905 369.776 411.501C369.574 412.096 369.191 412.614 368.68 412.98C368.169 413.346 367.555 413.542 366.927 413.541H366.907Z" fill="#8F3535"/>
<path d="M380.779 415.05C378.459 415.05 375.829 414 372.959 411.93C372.315 411.464 371.882 410.76 371.756 409.974C371.631 409.188 371.822 408.385 372.289 407.74C372.756 407.096 373.46 406.663 374.245 406.538C375.031 406.412 375.835 406.604 376.479 407.07C378.959 408.86 380.309 409.07 380.779 409.07C381.575 409.07 382.338 409.386 382.9 409.949C383.463 410.512 383.779 411.275 383.779 412.07C383.779 412.866 383.463 413.629 382.9 414.192C382.338 414.754 381.575 415.07 380.779 415.07V415.05Z" fill="#8F3535"/>
<path d="M373.797 411.841C377.007 402.311 390.167 404.191 394.707 405.611C398.585 406.736 402.304 408.349 405.777 410.411C408.227 412.011 408.267 414.701 404.997 416.231C400.997 418.111 390.837 416.441 390.837 416.441C396.077 418.731 390.837 422.441 381.627 418.801C378.637 417.621 372.667 415.341 373.797 411.841Z" fill="#EE5858"/>
<path d="M341.859 331C340.669 339.1 333.959 345.07 328.499 344.27C323.039 343.47 322.819 336.27 324.009 328.13C325.199 319.99 327.359 314.13 332.819 314.93C338.279 315.73 343.049 322.93 341.859 331Z" fill="#8F3535"/>
<path d="M209.875 298.701C210.328 298.701 210.695 298.333 210.695 297.881C210.695 297.428 210.328 297.061 209.875 297.061C209.422 297.061 209.055 297.428 209.055 297.881C209.055 298.333 209.422 298.701 209.875 298.701Z" fill="#8F3535"/>
<path d="M218.203 303.781C218.203 303.943 218.154 304.102 218.064 304.237C217.974 304.371 217.846 304.476 217.696 304.539C217.546 304.601 217.382 304.617 217.223 304.585C217.063 304.554 216.917 304.475 216.803 304.361C216.688 304.246 216.61 304.1 216.578 303.941C216.547 303.782 216.563 303.617 216.625 303.467C216.687 303.317 216.792 303.189 216.927 303.099C217.062 303.009 217.22 302.961 217.383 302.961C217.6 302.961 217.809 303.047 217.962 303.201C218.116 303.355 218.203 303.563 218.203 303.781Z" fill="#8F3535"/>
<path d="M219.124 400.681C219.124 400.844 219.076 401.002 218.986 401.137C218.896 401.272 218.768 401.377 218.618 401.439C218.468 401.501 218.303 401.517 218.144 401.486C217.985 401.454 217.839 401.376 217.725 401.261C217.61 401.146 217.532 401 217.5 400.841C217.468 400.682 217.485 400.517 217.547 400.368C217.609 400.218 217.714 400.09 217.849 400C217.984 399.909 218.142 399.861 218.304 399.861C218.522 399.861 218.73 399.948 218.884 400.102C219.038 400.255 219.124 400.464 219.124 400.681Z" fill="#8F3535"/>
<path d="M226.64 406.591C226.64 406.754 226.592 406.912 226.502 407.047C226.412 407.182 226.284 407.287 226.134 407.349C225.984 407.411 225.819 407.427 225.66 407.396C225.501 407.364 225.355 407.286 225.24 407.171C225.125 407.057 225.047 406.911 225.016 406.751C224.984 406.592 225 406.428 225.062 406.278C225.124 406.128 225.23 406 225.364 405.91C225.499 405.82 225.658 405.771 225.82 405.771C226.037 405.771 226.246 405.858 226.4 406.012C226.554 406.165 226.64 406.374 226.64 406.591Z" fill="#8F3535"/>
<path d="M82.513 416.42C81.0733 416.352 79.6672 415.963 78.3985 415.279C77.1297 414.595 76.0308 413.635 75.183 412.47C75.1414 412.416 75.1112 412.355 75.0941 412.289C75.0771 412.223 75.0736 412.155 75.0839 412.088C75.0942 412.021 75.118 411.956 75.1539 411.899C75.1898 411.841 75.237 411.792 75.2927 411.753C75.3485 411.714 75.4115 411.687 75.4779 411.674C75.5444 411.66 75.6129 411.66 75.6794 411.674C75.7458 411.687 75.8088 411.715 75.8644 411.753C75.92 411.792 75.9672 411.842 76.003 411.9C77.873 414.6 82.003 416.03 83.803 415.18C83.9832 415.103 84.1439 414.987 84.273 414.84C83.3634 414.439 82.5665 413.821 81.9526 413.04C81.3387 412.259 80.9266 411.338 80.753 410.36C80.523 409.09 80.343 407.36 81.383 407.14C82.823 406.82 84.703 410.29 85.383 412.92C85.5061 413.355 85.5502 413.809 85.513 414.26C86.0897 414.432 86.6964 414.479 87.293 414.4C87.5618 414.379 87.8233 414.303 88.0609 414.175C88.2985 414.048 88.507 413.872 88.673 413.66C88.0148 413.163 87.4689 412.533 87.0708 411.811C86.6728 411.089 86.4316 410.291 86.363 409.47C85.983 406.73 86.273 406.26 86.573 406.02C86.6701 405.945 86.7862 405.899 86.908 405.887C87.0299 405.874 87.1528 405.896 87.263 405.95C88.333 406.4 89.623 410.28 89.873 412.48C89.9029 412.709 89.9029 412.941 89.873 413.17C90.3041 413.335 90.7611 413.423 91.223 413.43C92.0709 413.463 92.9096 413.243 93.633 412.8C93.493 412.71 93.363 412.61 93.233 412.51C92.233 411.62 91.773 410.2 91.953 408.18C92.093 406.61 92.443 405.75 93.073 405.48C93.2762 405.398 93.4988 405.377 93.7136 405.42C93.9284 405.463 94.1262 405.567 94.283 405.72C94.958 406.465 95.4625 407.349 95.7612 408.309C96.06 409.269 96.1459 410.283 96.013 411.28C95.9261 411.695 95.7523 412.087 95.503 412.43C97.343 412.75 99.923 412.23 102.153 411.68C102.219 411.664 102.287 411.661 102.353 411.672C102.42 411.682 102.484 411.706 102.542 411.741C102.599 411.777 102.649 411.823 102.689 411.878C102.729 411.932 102.757 411.994 102.773 412.06C102.789 412.125 102.791 412.193 102.781 412.26C102.77 412.327 102.747 412.391 102.711 412.448C102.676 412.506 102.63 412.556 102.575 412.596C102.521 412.635 102.459 412.664 102.393 412.68C99.683 413.35 96.763 413.9 94.703 413.3C93.6974 414.064 92.466 414.472 91.203 414.46C90.6424 414.452 90.0875 414.347 89.563 414.15C89.3303 414.509 89.0182 414.811 88.6506 415.031C88.2831 415.251 87.8699 415.384 87.443 415.42C86.6913 415.516 85.9276 415.452 85.203 415.23C84.9696 415.623 84.6203 415.934 84.203 416.12C83.6666 416.336 83.091 416.438 82.513 416.42ZM81.653 408.14C81.5146 408.82 81.5421 409.523 81.733 410.19C81.874 410.989 82.2058 411.743 82.7002 412.387C83.1946 413.031 83.837 413.547 84.573 413.89C84.559 413.653 84.5187 413.418 84.453 413.19C83.673 410.33 82.173 408.36 81.653 408.14ZM87.223 407.27C87.2295 407.96 87.2863 408.648 87.393 409.33C87.5032 410.549 88.0417 411.69 88.913 412.55C88.6669 410.703 88.0946 408.916 87.223 407.27ZM93.513 406.4C93.513 406.4 93.133 406.59 92.993 408.26C92.853 409.93 93.143 411.08 93.923 411.75C94.1075 411.899 94.3089 412.027 94.523 412.13C94.7859 411.848 94.9719 411.504 95.063 411.13C95.2411 409.556 94.8158 407.973 93.873 406.7C93.663 406.44 93.543 406.4 93.513 406.4Z" fill="#8F3535"/>
<path d="M228.877 423.98L231.587 419.28L228.877 414.58H225.977L227.617 419.28L225.977 423.98H228.877Z" fill="#8F3535"/>
<path d="M226.166 421.73C225.832 421.751 225.497 421.704 225.181 421.591C224.866 421.478 224.578 421.301 224.333 421.072C224.089 420.843 223.894 420.566 223.761 420.259C223.628 419.951 223.559 419.62 223.559 419.285C223.559 418.95 223.628 418.619 223.761 418.311C223.894 418.004 224.089 417.727 224.333 417.498C224.578 417.269 224.866 417.092 225.181 416.979C225.497 416.866 225.832 416.819 226.166 416.84L221.566 415.92L220.336 419.64L222.396 422.78L226.166 421.73Z" fill="#8F3535"/>
<path d="M226.562 414.58H221.132L218.422 419.28L221.132 423.98H226.562L229.272 419.28L226.562 414.58ZM223.852 421.73C223.367 421.732 222.892 421.59 222.488 421.322C222.084 421.054 221.768 420.672 221.581 420.225C221.394 419.777 221.344 419.284 221.438 418.808C221.531 418.332 221.764 417.895 222.106 417.551C222.448 417.208 222.885 416.973 223.36 416.878C223.836 416.783 224.329 416.831 224.777 417.016C225.225 417.201 225.609 417.515 225.878 417.918C226.148 418.321 226.292 418.795 226.292 419.28C226.292 419.928 226.035 420.55 225.578 421.009C225.121 421.468 224.5 421.727 223.852 421.73Z" fill="#EE5858"/>
<path d="M417.893 414.259L415.883 410.769L417.893 407.279H420.043L418.833 410.769L420.043 414.259H417.893Z" fill="#EE5858"/>
<path d="M419.906 412.589C420.156 412.608 420.407 412.575 420.643 412.492C420.879 412.409 421.096 412.278 421.279 412.108C421.463 411.938 421.609 411.731 421.709 411.502C421.809 411.272 421.861 411.025 421.861 410.774C421.861 410.524 421.809 410.276 421.709 410.047C421.609 409.817 421.463 409.611 421.279 409.441C421.096 409.27 420.879 409.14 420.643 409.057C420.407 408.974 420.156 408.941 419.906 408.959L423.326 408.279L424.236 411.039L422.716 413.369L419.906 412.589Z" fill="#EE5858"/>
<path d="M419.609 407.279H423.609L425.609 410.769L423.609 414.259H419.609L417.609 410.769L419.609 407.279ZM421.609 412.589C421.97 412.591 422.323 412.486 422.623 412.287C422.924 412.089 423.159 411.805 423.298 411.473C423.437 411.14 423.475 410.774 423.406 410.42C423.337 410.067 423.164 409.741 422.91 409.486C422.656 409.23 422.331 409.056 421.978 408.985C421.625 408.914 421.258 408.949 420.925 409.087C420.592 409.224 420.307 409.458 420.107 409.757C419.906 410.057 419.799 410.409 419.799 410.769C419.798 411.009 419.844 411.246 419.935 411.467C420.026 411.689 420.16 411.89 420.329 412.059C420.499 412.228 420.7 412.362 420.921 412.453C421.143 412.544 421.38 412.591 421.619 412.589H421.609Z" fill="#8F3535"/>
<path d="M342.999 418.899H347.519C348.085 418.896 348.627 418.67 349.026 418.269C349.425 417.868 349.649 417.325 349.649 416.759C349.649 416.193 349.425 415.65 349.026 415.249C348.627 414.848 348.085 414.622 347.519 414.619H342.999C342.432 414.619 341.888 414.845 341.486 415.246C341.085 415.647 340.859 416.192 340.859 416.759C340.859 417.327 341.085 417.871 341.486 418.272C341.888 418.674 342.432 418.899 342.999 418.899Z" fill="#8F3535"/>
<path d="M335.732 414.86C336.151 414.097 336.785 413.474 337.554 413.067C338.324 412.659 339.196 412.486 340.062 412.569C340.929 412.651 341.753 412.986 342.432 413.531C343.11 414.076 343.615 414.807 343.883 415.636C344.151 416.464 344.171 417.353 343.94 418.192C343.709 419.031 343.238 419.785 342.583 420.359C341.929 420.934 341.122 421.305 340.259 421.426C339.397 421.547 338.519 421.412 337.732 421.04C336.65 420.482 335.833 419.52 335.458 418.362C335.084 417.204 335.182 415.946 335.732 414.86Z" fill="#EE5858"/>
<path d="M336.956 421.039L338.195 421.623L342.502 412.487L341.263 411.903L336.956 421.039Z" fill="#8F3535"/>
</svg>
