<svg width="16" height="16" viewBox="0 0 16 16" fill="none" xmlns="http://www.w3.org/2000/svg">
<g clip-path="url(#clip0_3381_7612)">
<path d="M7.42347 0.0531425C4.76461 0.349959 2.11513 2.5011 2.00578 5.57394C1.93704 7.45013 2.46975 8.85767 4.25534 9.25291C5.03019 7.88599 4.00539 7.58448 3.84604 6.59561C3.19148 2.54328 8.52013 -0.220242 11.3087 2.60889C13.238 4.56789 11.9679 10.5948 8.85601 9.96839C5.87533 9.37007 10.3151 4.57257 7.93587 3.63057C6.00187 2.86509 4.97395 5.9723 5.89096 7.51575C5.35356 10.1699 4.19597 12.671 4.66463 16C6.18465 14.8971 6.69705 12.785 7.11728 10.5823C7.8812 11.0463 8.28893 11.529 9.26374 11.604C12.8584 11.8821 14.8658 8.01565 14.3752 4.44916C13.9394 1.28728 10.7838 -0.321784 7.42347 0.0531425Z" fill="white"/>
</g>
<defs>
<clipPath id="clip0_3381_7612">
<rect width="16" height="16" fill="white"/>
</clipPath>
</defs>
</svg>
