<svg width="16" height="16" viewBox="0 0 16 16" fill="none" xmlns="http://www.w3.org/2000/svg">
<g clip-path="url(#clip0_3381_7614)">
<path d="M8 16C12.4183 16 16 12.4183 16 8C16 3.58172 12.4183 0 8 0C3.58172 0 0 3.58172 0 8C0 12.4183 3.58172 16 8 16Z" fill="white"/>
<path d="M13.6565 8.00007C13.6581 8.10967 13.6445 8.21907 13.6157 8.32487C13.5869 8.43067 13.5433 8.53207 13.4861 8.62567C13.4291 8.71927 13.3591 8.80447 13.2783 8.87867C13.1975 8.95288 13.1067 9.01528 13.0085 9.06408C13.0107 9.09328 13.0125 9.12268 13.0135 9.15208C13.0159 9.21072 13.0159 9.26944 13.0135 9.32808C13.0125 9.35748 13.0107 9.38688 13.0085 9.41608C13.0085 11.2081 10.9205 12.6641 8.34448 12.6641C5.76846 12.6641 3.68044 11.2081 3.68044 9.41608C3.67824 9.38688 3.67644 9.35748 3.67544 9.32808C3.67303 9.26944 3.67303 9.21072 3.67544 9.15208C3.67644 9.12268 3.67824 9.09328 3.68044 9.06408C3.52659 8.99336 3.38994 8.89005 3.27995 8.76131C3.16996 8.63258 3.08926 8.48147 3.04343 8.31847C2.99768 8.15539 2.98793 7.98432 3.01487 7.8171C3.04181 7.64988 3.10478 7.49052 3.19943 7.35006C3.294 7.20962 3.41799 7.09144 3.5628 7.00372C3.70761 6.916 3.86978 6.86083 4.03804 6.84205C4.20633 6.82319 4.3767 6.84115 4.53736 6.89468C4.69801 6.94821 4.84511 7.03603 4.96845 7.15206C5.19742 6.99686 5.43731 6.85843 5.68626 6.73785C5.93526 6.61745 6.19266 6.51505 6.45646 6.43185C6.72026 6.34865 6.98987 6.28485 7.26287 6.24065C7.53587 6.19645 7.81187 6.17225 8.08848 6.16805L8.68048 3.39202C8.68708 3.35982 8.70008 3.32942 8.71868 3.30222C8.73708 3.27522 8.76088 3.25202 8.78828 3.23422C8.81588 3.21642 8.84668 3.20422 8.87908 3.19822C8.91128 3.19242 8.94448 3.19302 8.97648 3.20002L10.9365 3.59202C11.1343 3.25222 11.5495 3.10662 11.9161 3.24822C12.2827 3.38982 12.4923 3.77682 12.4103 4.16123C12.3285 4.54563 11.9793 4.81363 11.5869 4.79343C11.1943 4.77323 10.8745 4.47083 10.8325 4.08003L9.12049 3.72002L8.60048 6.21605C8.87368 6.22185 9.14629 6.24745 9.41589 6.29245C9.95578 6.38244 10.4799 6.54991 10.9719 6.78965C11.2177 6.90925 11.4545 7.04641 11.6805 7.20006C11.843 7.04402 12.0473 6.93836 12.2685 6.89586C12.4898 6.8532 12.7187 6.87549 12.9275 6.96006C13.1364 7.04458 13.3164 7.18773 13.4457 7.37226C13.5751 7.5568 13.6483 7.77484 13.6565 8.00007ZM5.71726 9.10628C5.75766 9.20328 5.81646 9.29148 5.89086 9.36568C5.96506 9.44008 6.05326 9.49888 6.15026 9.53928C6.24735 9.57944 6.35139 9.60009 6.45646 9.60008C6.78007 9.60008 7.07167 9.40508 7.19567 9.10628C7.31947 8.80727 7.25087 8.46327 7.02207 8.23447C6.79327 8.00567 6.44926 7.93707 6.15026 8.06087C5.85146 8.18487 5.65646 8.47647 5.65646 8.80007C5.65646 8.90508 5.67706 9.00908 5.71726 9.10628ZM10.2993 11.0267C10.3403 10.9867 10.3637 10.9321 10.3645 10.8749C10.3653 10.8175 10.3431 10.7623 10.3031 10.7213C10.2631 10.6803 10.2085 10.6569 10.1513 10.6561C10.0939 10.6553 10.0387 10.6775 9.99249 10.7121C9.8722 10.7984 9.74481 10.8743 9.61169 10.9391C9.47857 11.0039 9.34021 11.0574 9.19809 11.0989C9.05609 11.1403 8.91068 11.1697 8.76368 11.1867C8.61648 11.2037 8.46828 11.2081 8.32048 11.2001C8.17288 11.2067 8.02488 11.2007 7.87828 11.1823C7.73164 11.1641 7.58684 11.1333 7.44547 11.0903C7.30387 11.0475 7.16647 10.9927 7.03427 10.9267C6.90207 10.8607 6.77567 10.7835 6.65646 10.6961C6.61506 10.6621 6.56246 10.6447 6.50886 10.6473C6.45526 10.6499 6.40466 10.6725 6.36666 10.7103C6.32886 10.7483 6.30626 10.7989 6.30366 10.8525C6.30106 10.9061 6.31846 10.9587 6.35246 11.0001C6.49306 11.1061 6.64246 11.1997 6.79907 11.2801C6.95567 11.3605 7.11907 11.4271 7.28707 11.4795C7.45507 11.5319 7.62727 11.5697 7.80187 11.5927C7.97648 11.6155 8.15268 11.6233 8.32848 11.6161C8.50428 11.6233 8.68048 11.6155 8.85508 11.5927C9.20479 11.5467 9.54399 11.441 9.85789 11.2801C10.0145 11.1997 10.1639 11.1061 10.3045 11.0001L10.2993 11.0267ZM10.1525 9.66408C10.2609 9.66528 10.3685 9.64428 10.4687 9.60268C10.5689 9.56088 10.6595 9.49928 10.7351 9.42148C10.8107 9.34368 10.8695 9.25128 10.9083 9.14988C10.9471 9.04859 10.9649 8.94046 10.9605 8.83207C10.9605 8.50847 10.7655 8.21687 10.4667 8.09287C10.1677 7.96907 9.82369 8.03767 9.59489 8.26647C9.36609 8.49527 9.29749 8.83927 9.42129 9.13828C9.54529 9.43708 9.83689 9.63208 10.1605 9.63208L10.1525 9.66408Z" fill="#1B6392"/>
</g>
<defs>
<clipPath id="clip0_3381_7614">
<rect width="16" height="16" fill="white"/>
</clipPath>
</defs>
</svg>
