<svg width="32" height="32" viewBox="0 0 32 32" fill="none" xmlns="http://www.w3.org/2000/svg">
<path d="M23.5442 30.2264C22.8376 30.2264 21.9309 29.9998 20.7976 29.3331L16.8109 26.9731C16.3976 26.7331 15.5976 26.7331 15.1976 26.9731L11.1976 29.3331C8.83755 30.7331 7.45089 30.1731 6.82422 29.7198C6.21089 29.2664 5.25089 28.1064 5.87755 25.4398L6.82422 21.3464C6.93089 20.9198 6.71755 20.1864 6.39755 19.8664L3.09089 16.5598C1.43755 14.9064 1.57089 13.4931 1.79755 12.7998C2.02422 12.1064 2.74422 10.8798 5.03755 10.4931L9.29089 9.78643C9.69089 9.71977 10.2642 9.2931 10.4376 8.9331L12.7976 4.22643C13.8642 2.07977 15.2642 1.75977 15.9976 1.75977C16.7309 1.75977 18.1309 2.07977 19.1976 4.22643L21.5442 8.91977C21.7309 9.27977 22.3042 9.70643 22.7042 9.7731L26.9576 10.4798C29.2642 10.8664 29.9842 12.0931 30.1976 12.7864C30.4109 13.4798 30.5442 14.8931 28.9042 16.5464L25.5976 19.8664C25.2776 20.1864 25.0776 20.9064 25.1709 21.3464L26.1176 25.4398C26.7309 28.1064 25.7842 29.2664 25.1709 29.7198C24.8376 29.9598 24.3042 30.2264 23.5442 30.2264ZM15.9976 24.7864C16.6509 24.7864 17.3042 24.9464 17.8242 25.2531L21.8109 27.6131C22.9709 28.3064 23.7042 28.3064 23.9842 28.1064C24.2642 27.9064 24.4642 27.1998 24.1709 25.8931L23.2242 21.7998C22.9709 20.6931 23.3842 19.2664 24.1842 18.4531L27.4909 15.1464C28.1442 14.4931 28.4376 13.8531 28.3042 13.4131C28.1576 12.9731 27.5442 12.6131 26.6376 12.4664L22.3842 11.7598C21.3576 11.5864 20.2376 10.7598 19.7709 9.82643L17.4242 5.1331C16.9976 4.27977 16.4642 3.7731 15.9976 3.7731C15.5309 3.7731 14.9976 4.27977 14.5842 5.1331L12.2242 9.82643C11.7576 10.7598 10.6376 11.5864 9.61089 11.7598L5.37089 12.4664C4.46422 12.6131 3.85089 12.9731 3.70422 13.4131C3.55755 13.8531 3.86422 14.5064 4.51755 15.1464L7.82422 18.4531C8.62422 19.2531 9.03755 20.6931 8.78422 21.7998L7.83755 25.8931C7.53089 27.2131 7.74422 27.9064 8.02422 28.1064C8.30422 28.3064 9.02422 28.2931 10.1976 27.6131L14.1842 25.2531C14.6909 24.9464 15.3442 24.7864 15.9976 24.7864Z" fill="#196480"/>
</svg>
