<svg width="32" height="32" viewBox="0 0 32 32" fill="none" xmlns="http://www.w3.org/2000/svg">
<path fill-rule="evenodd" clip-rule="evenodd" d="M24.9097 14.5517H23.4885C23.3757 14.5517 23.2675 14.5966 23.1877 14.6763C23.1079 14.756 23.0631 14.8642 23.063 14.977V16.3982H22.0145V14.977C22.0145 14.8642 21.9697 14.7561 21.89 14.6763C21.8103 14.5966 21.7021 14.5518 21.5894 14.5517H20.1681V13.5032H21.5894C21.7021 13.5032 21.8103 13.4583 21.89 13.3786C21.9697 13.2988 22.0145 13.1907 22.0145 13.0779V11.6568H23.063V13.0779C23.0631 13.1907 23.1079 13.2989 23.1877 13.3786C23.2675 13.4584 23.3757 13.5032 23.4885 13.5032H24.9097V14.5517ZM25.0184 12.6527H23.9139V11.5479C23.9139 11.1391 23.581 10.8062 23.172 10.8062H21.9059C21.4968 10.8062 21.164 11.1391 21.164 11.5479V12.6527H20.0595C19.6505 12.6527 19.3176 12.9855 19.3176 13.3944V14.6607C19.3176 15.0695 19.6505 15.4024 20.0595 15.4024H21.164V16.507C21.164 16.9158 21.4969 17.2488 21.9059 17.2488H23.172C23.5811 17.2488 23.9139 16.9158 23.9139 16.507V15.4024H25.0184C25.4274 15.4024 25.7603 15.0695 25.7603 14.6607V13.3944C25.7603 12.9855 25.4274 12.6527 25.0184 12.6527ZM22.5388 18.4277C24.9654 18.4277 26.939 16.4536 26.939 14.0277C26.939 11.6012 24.9653 9.62725 22.5388 9.62725C20.1125 9.62725 18.1384 11.6012 18.1384 14.0277C18.1384 16.4536 20.1125 18.4277 22.5388 18.4277ZM22.5388 8.77663C19.6435 8.77663 17.2879 11.1323 17.2879 14.0277C17.2879 16.9227 19.6435 19.2783 22.5388 19.2783C25.4344 19.2783 27.7896 16.9227 27.7896 14.0277C27.7896 11.1323 25.4343 8.77663 22.5388 8.77663ZM28.807 26.4752V7.31231C28.807 6.87173 28.4492 6.51403 28.0087 6.51403H8.54689C8.10644 6.51403 7.74791 6.87173 7.74791 7.31231V9.67026H8.63143C9.35469 9.67026 9.68359 10.6515 9.68359 11.5626V12.5404C9.68367 12.5963 9.67271 12.6516 9.65135 12.7033C9.63 12.7549 9.59866 12.8018 9.55913 12.8414C9.5196 12.8809 9.47267 12.9122 9.42101 12.9335C9.36936 12.9549 9.314 12.9658 9.25812 12.9657H9.02727V13.159C9.02727 14.9549 9.40333 15.935 9.86503 16.5268V14.4656C9.86503 13.8372 10.1061 13.2765 10.5612 12.8436L11.8639 11.6052V8.89061C11.8639 8.83477 11.8749 8.77947 11.8962 8.72787C11.9176 8.67627 11.9489 8.62938 11.9884 8.58988C12.0278 8.55039 12.0747 8.51906 12.1263 8.49769C12.1779 8.47632 12.2332 8.46532 12.289 8.46533C12.3449 8.46522 12.4003 8.47614 12.4519 8.49747C12.5036 8.51881 12.5505 8.55012 12.5901 8.58963C12.6296 8.62915 12.6609 8.67607 12.6823 8.72772C12.7036 8.77937 12.7146 8.83472 12.7145 8.89061V11.6052L14.0176 12.8436C14.4731 13.2765 14.7134 13.8372 14.7134 14.4656V23.4786H15.4718C15.8402 23.4786 16.1395 23.7782 16.1395 24.1462V25.1494C16.1395 25.5173 15.8402 25.8169 15.4718 25.8169H13.6218V27.2736H28.0087C28.4492 27.2736 28.807 26.9152 28.807 26.4752ZM11.8076 29.1846V25.8168H12.7713V29.1846H11.8076ZM9.28993 24.9661V24.3293H15.2889V24.9661H9.28993ZM12.289 12.3741L13.4319 13.4601C13.7216 13.7363 13.8629 14.0651 13.8629 14.4656V15.4392H12.9556C12.8428 15.4392 12.7346 15.484 12.6548 15.5637C12.5751 15.6435 12.5302 15.7516 12.5301 15.8644C12.5302 15.9773 12.575 16.0854 12.6548 16.1652C12.7346 16.245 12.8428 16.2898 12.9556 16.2898H13.8629V17.5096H12.9556C12.8428 17.5096 12.7346 17.5544 12.6548 17.6341C12.5751 17.7139 12.5302 17.822 12.5301 17.9348C12.5302 18.0476 12.575 18.1558 12.6548 18.2356C12.7346 18.3153 12.8428 18.3601 12.9556 18.3601H13.8629V19.58H12.9556C12.7207 19.58 12.5301 19.7704 12.5301 20.0052C12.5301 20.24 12.7207 20.4305 12.9556 20.4305H13.8629V21.6504H12.9556C12.8997 21.6503 12.8444 21.6613 12.7928 21.6826C12.7411 21.704 12.6942 21.7353 12.6547 21.7748C12.6152 21.8143 12.5838 21.8612 12.5625 21.9128C12.5411 21.9644 12.5301 22.0198 12.5301 22.0756C12.5302 22.1885 12.575 22.2966 12.6548 22.3764C12.7346 22.4562 12.8428 22.501 12.9556 22.501H13.8629V23.4785H10.7156V14.4656C10.7156 14.0651 10.8568 13.7363 11.1469 13.4601L12.289 12.3741ZM3.58285 27.2736C3.39924 27.2736 3.19437 26.9901 3.19437 26.6101V19.0334C3.19437 18.684 3.38093 18.5531 3.96007 18.2394C4.97268 17.6894 6.50305 16.8592 6.50305 13.159V12.9656H8.17677V13.159C8.17677 15.9683 9.04237 17.09 9.86509 17.7109V23.4786H9.10708C8.73869 23.4786 8.43943 23.7781 8.43943 24.1461V25.1493C8.43943 25.5172 8.73869 25.8168 9.10708 25.8168H10.9571V27.2736H3.58285ZM5.81261 11.5625C5.81261 10.9552 5.98196 10.6071 6.06209 10.5209H8.58381C8.66317 10.6071 8.83297 10.9552 8.83297 11.5625V12.1149H5.81261V11.5625ZM14.127 3.95243C14.3513 3.26181 14.9652 2.81547 15.6914 2.81547H20.8647C21.5905 2.81547 22.2044 3.26181 22.4287 3.95243L22.9833 5.66328H13.5724L14.127 3.95243ZM28.0087 5.66328H23.8776L23.2374 3.68991C22.8976 2.64178 21.9665 1.96472 20.8646 1.96472H15.6913C14.589 1.96472 13.6579 2.64178 13.3177 3.68991L12.6782 5.66328H8.54682C7.63738 5.66328 6.89729 6.40267 6.89729 7.31224V9.67019H6.0146C5.29133 9.67019 4.96205 10.6514 4.96205 11.5625V12.5403C4.96203 12.5962 4.97301 12.6515 4.99436 12.7031C5.01571 12.7547 5.04702 12.8015 5.08649 12.841C5.12597 12.8805 5.17284 12.9119 5.22442 12.9332C5.27601 12.9546 5.3313 12.9656 5.38714 12.9656H5.65204V13.159C5.65204 16.3528 4.48903 16.9845 3.55393 17.4914C2.98689 17.7993 2.34375 18.1486 2.34375 19.0333V26.61C2.34375 27.4447 2.89946 28.1241 3.58285 28.1241H10.9571V29.1846H9.01447C8.90167 29.1846 8.79348 29.2294 8.7137 29.3092C8.63392 29.3889 8.58907 29.4971 8.589 29.6099C8.58897 29.6658 8.59996 29.7211 8.62134 29.7727C8.64271 29.8243 8.67406 29.8712 8.71357 29.9107C8.75309 29.9502 8.8 29.9816 8.85163 30.0029C8.90326 30.0243 8.9586 30.0352 9.01447 30.0352H15.564C15.6199 30.0352 15.6753 30.0243 15.7269 30.003C15.7785 29.9816 15.8255 29.9503 15.865 29.9108C15.9045 29.8713 15.9358 29.8244 15.9572 29.7727C15.9786 29.7211 15.9896 29.6658 15.9895 29.6099C15.9895 29.554 15.9785 29.4987 15.9571 29.4471C15.9358 29.3955 15.9044 29.3486 15.8649 29.3091C15.8254 29.2696 15.7785 29.2383 15.7269 29.2169C15.6752 29.1956 15.6199 29.1846 15.564 29.1846H13.6218V28.1241H28.0087C28.9181 28.1241 29.6579 27.3842 29.6579 26.4752V7.31231C29.6579 6.40267 28.9182 5.66328 28.0087 5.66328Z" fill="#196480"/>
</svg>
