<svg width="32" height="32" viewBox="0 0 32 32" fill="none" xmlns="http://www.w3.org/2000/svg">
<path d="M0 16C0 7.16344 7.16344 0 16 0C24.8366 0 32 7.16344 32 16C32 24.8366 24.8366 32 16 32C7.16344 32 0 24.8366 0 16Z" fill="#FFF9F6"/>
<g clip-path="url(#clip0_3046_55943)">
<path d="M24.6172 12.45C23.5672 7.83 19.5372 5.75 15.9972 5.75C15.9972 5.75 15.9972 5.75 15.9872 5.75C12.4572 5.75 8.41717 7.82 7.36717 12.44C6.19717 17.6 9.35717 21.97 12.2172 24.72C13.2772 25.74 14.6372 26.25 15.9972 26.25C17.3572 26.25 18.7172 25.74 19.7672 24.72C22.6272 21.97 25.7872 17.61 24.6172 12.45ZM15.9972 17.46C14.2572 17.46 12.8472 16.05 12.8472 14.31C12.8472 12.57 14.2572 11.16 15.9972 11.16C17.7372 11.16 19.1472 12.57 19.1472 14.31C19.1472 16.05 17.7372 17.46 15.9972 17.46Z" fill="#FAA96A"/>
</g>
<defs>
<clipPath id="clip0_3046_55943">
<rect width="24" height="24" fill="white" transform="translate(4 4)"/>
</clipPath>
</defs>
</svg>
