<svg width="16" height="16" viewBox="0 0 16 16" fill="none" xmlns="http://www.w3.org/2000/svg">
<g clip-path="url(#clip0_3381_7617)">
<path d="M8.3411 13.5023L5.06377 13.4424C4.00265 13.4215 2.93888 13.4632 1.89856 13.2469C0.315996 12.9237 0.203881 11.339 0.0865653 10.0098C-0.0750844 8.14102 -0.012505 6.23835 0.292549 4.38519C0.464762 3.34538 1.14249 2.72491 2.19057 2.6574C5.72862 2.41236 9.29019 2.4414 12.8204 2.55572C13.1932 2.5662 13.5686 2.62348 13.9363 2.68867C15.751 3.00667 15.7952 4.80246 15.9129 6.31418C16.0302 7.84151 15.9807 9.37667 15.7564 10.8936C15.5765 12.1496 15.2323 13.2028 13.7798 13.3045C11.9599 13.4374 10.1817 13.5445 8.35671 13.5104C8.35679 13.5023 8.3463 13.5023 8.3411 13.5023ZM6.41435 10.3226C7.78581 9.53539 9.13111 8.76132 10.4947 7.97942C9.1207 7.19224 7.77797 6.41818 6.41435 5.63628V10.3226Z" fill="white"/>
</g>
<defs>
<clipPath id="clip0_3381_7617">
<rect width="16" height="16" fill="white"/>
</clipPath>
</defs>
</svg>
