<svg width="40" height="40" viewBox="0 0 40 40" fill="none" xmlns="http://www.w3.org/2000/svg">
<g clip-path="url(#clip0_3578_3822)">
<path d="M32.6401 20.2737L34.9089 18.0049C39.0302 13.8836 39.0307 7.21286 34.9089 3.09114C30.7877 -1.03011 24.117 -1.03065 19.9952 3.09114C19.1155 3.97067 1.88906 21.1973 1.09117 21.9952C-3.03016 26.1165 -3.03063 32.7872 1.09117 36.909C5.21234 41.0302 11.8831 41.0308 16.0048 36.909L18.2738 34.6401C20.0875 37.8363 23.522 39.9977 27.452 39.9977C33.2669 39.9977 37.9977 35.2669 37.9977 29.4521C37.9977 25.5219 35.8363 22.0875 32.6401 20.2737ZM16.9064 29.452C16.9058 30.4154 17.0376 31.3742 17.2979 32.3018L14.3478 35.2518C11.1424 38.4572 5.95406 38.4576 2.74828 35.2518C-0.45711 32.0465 -0.457578 26.8581 2.74828 23.6523L11.3002 15.1004L19.1527 22.9528C17.7461 24.745 16.9064 27.0023 16.9064 29.452ZM26.2802 37.5701C22.3106 36.9998 19.2498 33.5769 19.2498 29.452C19.2498 25.3271 22.3106 21.9042 26.2802 21.3339V37.5701ZM20.7942 21.2802L12.9573 13.4433L21.6523 4.74825C24.8577 1.54294 30.046 1.54247 33.2518 4.74825C36.4572 7.95356 36.4577 13.142 33.2518 16.3478L30.3017 19.2979C29.3742 19.0375 28.4154 18.9058 27.452 18.9064C24.9294 18.9064 22.6111 19.7972 20.7942 21.2802ZM28.6238 37.5701V21.334C32.5934 21.9043 35.6541 25.3272 35.6541 29.4521C35.6541 33.5769 32.5934 36.9998 28.6238 37.5701Z" fill="#196480"/>
</g>
<defs>
<clipPath id="clip0_3578_3822">
<rect width="40" height="40" fill="white"/>
</clipPath>
</defs>
</svg>
