<svg width="40" height="40" viewBox="0 0 40 40" fill="none" xmlns="http://www.w3.org/2000/svg">
<g clip-path="url(#clip0_3578_3850)">
<path d="M35.5125 34.0376H0.4875C-0.171719 34.0359 -0.803466 33.7733 -1.26961 33.3072C-1.73574 32.8411 -1.99835 32.2093 -2 31.5501L-2 5.86885C-2 4.5001 -0.8875 3.38135 0.4875 3.38135H35.5125C36.8812 3.38135 38 4.49385 38 5.86885V31.5501C38 32.9188 36.8875 34.0376 35.5125 34.0376ZM0.4875 4.59385C-0.2125 4.59385 -0.7875 5.1626 -0.7875 5.86885V31.5501C-0.7875 32.2501 -0.21875 32.8251 0.4875 32.8251H35.5125C36.2125 32.8251 36.7875 32.2563 36.7875 31.5501V5.86885C36.7875 5.16885 36.2188 4.59385 35.5125 4.59385H0.4875Z" fill="#196480"/>
<path d="M34.5906 25.869H1.40312C1.06562 25.869 0.796875 25.6003 0.796875 25.2628V6.84404C0.796875 6.50654 1.06562 6.23779 1.40312 6.23779H34.5906C34.9281 6.23779 35.1969 6.50654 35.1969 6.84404V25.269C35.1969 25.6003 34.9219 25.869 34.5906 25.869ZM2.00938 24.6565H33.9844V7.44404H2.00938V24.6565Z" fill="#196480"/>
<path d="M26.8781 21.3002H26.8719C26.7346 21.2985 26.602 21.2499 26.4962 21.1623C26.3905 21.0747 26.3179 20.9536 26.2906 20.819L24.9156 14.419L24.0906 18.6315C24.0406 18.9002 23.8156 19.1002 23.5406 19.119C23.4085 19.1308 23.2762 19.0986 23.1643 19.0274C23.0523 18.9562 22.9671 18.8499 22.9219 18.7252L21.9281 16.0127H19.4719C19.2094 16.0127 18.9781 15.844 18.8969 15.594L18.2781 13.6752L17.0719 18.869C17.0094 19.144 16.7656 19.3377 16.4844 19.3377H16.4781C16.1969 19.3377 15.9531 19.1377 15.8906 18.8627L14.9406 14.5565L14.4844 15.6502C14.3906 15.8752 14.1719 16.0252 13.9281 16.0252H12.2844C12.0156 16.0252 11.7844 15.8502 11.7031 15.594L11.1594 13.8002L9.86562 19.5127C9.80312 19.7877 9.56562 19.9815 9.28437 19.9877H9.27812C9.00313 19.9877 8.75937 19.8002 8.69062 19.5315L7.47812 14.8002L7.04687 15.7377C6.94687 15.9502 6.73437 16.0877 6.49687 16.0877H3.19062C2.85312 16.0877 2.58437 15.819 2.58437 15.4815C2.58437 15.144 2.85312 14.8752 3.19062 14.8752H6.09062L7.07187 12.744C7.12408 12.6304 7.21014 12.5357 7.31826 12.4728C7.42639 12.41 7.5513 12.3822 7.67586 12.3932C7.80043 12.4041 7.91856 12.4533 8.01407 12.534C8.10958 12.6147 8.1778 12.723 8.20937 12.844L9.22188 16.794L10.4719 11.2877C10.5344 11.019 10.7656 10.8252 11.0406 10.819C11.3219 10.8065 11.5656 10.9877 11.6406 11.2502L12.7156 14.8127H13.5094L14.5469 12.3252C14.6469 12.0815 14.8969 11.9377 15.1594 11.9565C15.4219 11.9815 15.6406 12.169 15.6969 12.4315L16.4844 16.0002L17.5844 11.2877C17.6469 11.0252 17.8781 10.8315 18.1469 10.819C18.4219 10.8065 18.6656 10.9815 18.7469 11.2377L19.9031 14.8127H22.3406C22.5969 14.8127 22.8219 14.969 22.9094 15.2127L23.2969 16.2815L24.2719 11.3065C24.3281 11.0252 24.5719 10.819 24.8594 10.819H24.8656C25.1531 10.819 25.3969 11.019 25.4594 11.3002L26.9031 18.0002L28.2781 12.3627C28.3406 12.1065 28.5594 11.9252 28.8156 11.9002C29.0844 11.8815 29.3219 12.0252 29.4219 12.2627L30.4719 14.7002H32.8031C33.1406 14.7002 33.4094 14.969 33.4094 15.3065C33.4094 15.644 33.1406 15.9127 32.8031 15.9127H30.0719C29.9531 15.9133 29.8368 15.8785 29.7377 15.8128C29.6387 15.7472 29.5614 15.6536 29.5156 15.544L29.0281 14.4065L27.4594 20.8502C27.3969 21.1127 27.1594 21.3002 26.8781 21.3002ZM7.99062 36.619H1.62187C1.28437 36.619 1.01562 36.3502 1.01562 36.0127V33.4252C1.01562 33.0877 1.28437 32.819 1.62187 32.819C1.95937 32.819 2.22812 33.0877 2.22812 33.4252V35.4065H7.38437V33.4252C7.38437 33.0877 7.65312 32.819 7.99062 32.819C8.32812 32.819 8.59687 33.0877 8.59687 33.4252V36.0127C8.59687 36.3502 8.32812 36.619 7.99062 36.619ZM34.3906 36.619H28.0156C27.6781 36.619 27.4094 36.3502 27.4094 36.0127V33.4252C27.4094 33.0877 27.6781 32.819 28.0156 32.819C28.3531 32.819 28.6219 33.0877 28.6219 33.4252V35.4065H33.7781V33.4252C33.7781 33.0877 34.0469 32.819 34.3844 32.819C34.7219 32.819 34.9906 33.0877 34.9906 33.4252V36.0127C34.9906 36.3502 34.7219 36.619 34.3906 36.619ZM31.7969 31.9502C30.3594 31.9502 29.1906 30.7815 29.1906 29.344C29.1906 27.9065 30.3594 26.7377 31.7969 26.7377C33.2344 26.7377 34.4031 27.9065 34.4031 29.344C34.3969 30.7815 33.2281 31.9502 31.7969 31.9502ZM31.7969 27.9565C31.0281 27.9565 30.4031 28.5815 30.4031 29.3502C30.4031 30.119 31.0281 30.744 31.7969 30.744C32.5656 30.744 33.1906 30.119 33.1906 29.3502C33.1906 28.5815 32.5594 27.9565 31.7969 27.9565ZM26.3781 31.1065C25.4094 31.1065 24.6156 30.319 24.6156 29.344C24.6156 28.3752 25.4031 27.5815 26.3781 27.5815C27.3469 27.5815 28.1406 28.369 28.1406 29.344C28.1406 30.319 27.3469 31.1065 26.3781 31.1065ZM26.3781 28.8002C26.0781 28.8002 25.8281 29.044 25.8281 29.3502C25.8281 29.6502 26.0719 29.9002 26.3781 29.9002C26.6781 29.9002 26.9281 29.6565 26.9281 29.3502C26.9281 29.044 26.6781 28.8002 26.3781 28.8002ZM21.9781 31.1065C21.0094 31.1065 20.2156 30.319 20.2156 29.344C20.2156 28.3752 21.0031 27.5815 21.9781 27.5815C22.9469 27.5815 23.7406 28.369 23.7406 29.344C23.7406 30.319 22.9531 31.1065 21.9781 31.1065ZM21.9781 28.8002C21.6781 28.8002 21.4281 29.044 21.4281 29.3502C21.4281 29.6502 21.6719 29.9002 21.9781 29.9002C22.2781 29.9002 22.5281 29.6565 22.5281 29.3502C22.5281 29.044 22.2844 28.8002 21.9781 28.8002ZM17.5844 31.1065C16.6156 31.1065 15.8219 30.319 15.8219 29.344C15.8219 28.3752 16.6094 27.5815 17.5844 27.5815C18.5594 27.5815 19.3469 28.369 19.3469 29.344C19.3469 30.319 18.5531 31.1065 17.5844 31.1065ZM17.5844 28.8002C17.2844 28.8002 17.0344 29.044 17.0344 29.3502C17.0344 29.6502 17.2781 29.9002 17.5844 29.9002C17.8844 29.9002 18.1344 29.6565 18.1344 29.3502C18.1344 29.044 17.8844 28.8002 17.5844 28.8002Z" fill="#196480"/>
</g>
<defs>
<clipPath id="clip0_3578_3850">
<rect width="40" height="40" fill="white"/>
</clipPath>
</defs>
</svg>
