<svg width="40" height="40" viewBox="0 0 40 40" fill="none" xmlns="http://www.w3.org/2000/svg">
<path fill-rule="evenodd" clip-rule="evenodd" d="M29.1371 18.1898H27.3606C27.2196 18.1898 27.0843 18.2458 26.9846 18.3455C26.8849 18.4452 26.8288 18.5804 26.8287 18.7214V20.4979H25.5181V18.7214C25.5181 18.5805 25.4621 18.4453 25.3625 18.3456C25.2628 18.2459 25.1277 18.1899 24.9867 18.1898H23.2102V16.8792H24.9867C25.1277 16.8791 25.2628 16.8231 25.3625 16.7234C25.4621 16.6237 25.5181 16.4885 25.5181 16.3476V14.5711H26.8287V16.3476C26.8288 16.4886 26.8849 16.6238 26.9846 16.7234C27.0844 16.8231 27.2196 16.8791 27.3606 16.8792H29.1371V18.1898ZM29.273 15.816H27.8924V14.435C27.8924 13.924 27.4762 13.5079 26.965 13.5079H25.3823C24.871 13.5079 24.455 13.924 24.455 14.435V15.816H23.0744C22.5631 15.816 22.147 16.232 22.147 16.7431V18.326C22.147 18.837 22.5631 19.2531 23.0744 19.2531H24.455V20.6339C24.455 21.1449 24.8711 21.5612 25.3823 21.5612H26.965C27.4763 21.5612 27.8924 21.1449 27.8924 20.6339V19.2531H29.273C29.7842 19.2531 30.2003 18.837 30.2003 18.326V16.7431C30.2003 16.232 29.7842 15.816 29.273 15.816ZM26.1734 23.0348C29.2067 23.0348 31.6738 20.5672 31.6738 17.5348C31.6738 14.5017 29.2066 12.0342 26.1734 12.0342C23.1406 12.0342 20.673 14.5017 20.673 17.5348C20.673 20.5672 23.1406 23.0348 26.1734 23.0348ZM26.1734 10.9709C22.5544 10.9709 19.6098 13.9155 19.6098 17.5348C19.6098 21.1535 22.5544 24.0981 26.1734 24.0981C29.793 24.0981 32.737 21.1536 32.737 17.5348C32.737 13.9155 29.7929 10.9709 26.1734 10.9709ZM34.0087 33.0941V9.14053C34.0087 8.58981 33.5615 8.14269 33.0109 8.14269H8.68361C8.13305 8.14269 7.68489 8.58981 7.68489 9.14053V12.088H8.78929C9.69337 12.088 10.1045 13.3145 10.1045 14.4534V15.6757C10.1046 15.7455 10.0909 15.8147 10.0642 15.8793C10.0375 15.9438 9.99832 16.0025 9.94891 16.0518C9.8995 16.1012 9.84083 16.1404 9.77627 16.1671C9.7117 16.1937 9.6425 16.2074 9.57265 16.2073H9.28409V16.4489C9.28409 18.6938 9.75417 19.9189 10.3313 20.6587V18.0821C10.3313 17.2967 10.6326 16.5957 11.2015 16.0547L12.8299 14.5067V11.1134C12.8299 11.0436 12.8436 10.9745 12.8703 10.91C12.897 10.8455 12.9361 10.7869 12.9854 10.7375C13.0348 10.6881 13.0934 10.649 13.1579 10.6223C13.2224 10.5955 13.2915 10.5818 13.3613 10.5818C13.4311 10.5817 13.5003 10.5953 13.5649 10.622C13.6295 10.6487 13.6882 10.6878 13.7376 10.7372C13.787 10.7866 13.8262 10.8452 13.8529 10.9098C13.8795 10.9744 13.8932 11.0436 13.8931 11.1134V14.5067L15.522 16.0547C16.0914 16.5957 16.3918 17.2967 16.3918 18.0821V29.3485H17.3398C17.8002 29.3485 18.1743 29.7229 18.1743 30.1829V31.4369C18.1743 31.8968 17.8002 32.2713 17.3398 32.2713H15.0272V34.0922H33.0109C33.5615 34.0921 34.0087 33.6441 34.0087 33.0941ZM12.7595 36.4809V32.2712H13.9641V36.4809H12.7595ZM9.61241 31.2077V30.4118H17.1111V31.2077H9.61241ZM13.3613 15.4678L14.7898 16.8253C15.152 17.1705 15.3286 17.5816 15.3286 18.0821V19.2991H14.1945C14.0535 19.2991 13.9183 19.3552 13.8186 19.4548C13.7188 19.5545 13.6628 19.6897 13.6626 19.8307C13.6627 19.9717 13.7188 20.107 13.8185 20.2067C13.9182 20.3064 14.0535 20.3624 14.1945 20.3625H15.3286V21.8871H14.1945C14.0535 21.8871 13.9183 21.9432 13.8186 22.0428C13.7188 22.1425 13.6628 22.2777 13.6626 22.4187C13.6627 22.5597 13.7188 22.6949 13.8185 22.7946C13.9182 22.8943 14.0535 22.9503 14.1945 22.9503H15.3286V24.4751H14.1945C13.9009 24.4751 13.6626 24.7132 13.6626 25.0067C13.6626 25.3002 13.9009 25.5383 14.1945 25.5383H15.3286V27.0631H14.1945C14.1246 27.063 14.0555 27.0767 13.9909 27.1034C13.9264 27.1301 13.8678 27.1693 13.8184 27.2186C13.769 27.268 13.7298 27.3266 13.7031 27.3912C13.6764 27.4557 13.6626 27.5249 13.6626 27.5947C13.6627 27.7357 13.7188 27.871 13.8185 27.9707C13.9182 28.0704 14.0535 28.1264 14.1945 28.1265H15.3286V29.3483H11.3945V18.0821C11.3945 17.5816 11.571 17.1705 11.9336 16.8253L13.3613 15.4678ZM2.47857 34.0921C2.24905 34.0921 1.99297 33.7377 1.99297 33.2628V23.7919C1.99297 23.3552 2.22617 23.1915 2.95009 22.7994C4.21585 22.1119 6.12881 21.0742 6.12881 16.4489V16.2072H8.22097V16.4489C8.22097 19.9605 9.30297 21.3626 10.3314 22.1388V29.3484H9.38385C8.92337 29.3484 8.54929 29.7228 8.54929 30.1828V31.4368C8.54929 31.8967 8.92337 32.2712 9.38385 32.2712H11.6964V34.0921H2.47857ZM5.26577 14.4533C5.26577 13.6941 5.47745 13.259 5.57761 13.1513H8.72977C8.82897 13.259 9.04121 13.6941 9.04121 14.4533V15.1437H5.26577V14.4533ZM15.6588 4.94069C15.9391 4.07741 16.7065 3.51949 17.6142 3.51949H24.0809C24.9882 3.51949 25.7555 4.07741 26.0358 4.94069L26.7291 7.07925H14.9655L15.6588 4.94069ZM33.0109 7.07925H27.847L27.0468 4.61253C26.622 3.30237 25.4582 2.45605 24.0807 2.45605H17.6141C16.2362 2.45605 15.0724 3.30237 14.6471 4.61253L13.8478 7.07925H8.68353C7.54673 7.07925 6.62161 8.00349 6.62161 9.14045V12.0879H5.51825C4.61417 12.0879 4.20257 13.3145 4.20257 14.4533V15.6756C4.20254 15.7454 4.21626 15.8145 4.24295 15.879C4.26963 15.9435 4.30877 16.0021 4.35811 16.0515C4.40746 16.1008 4.46605 16.14 4.53053 16.1667C4.59501 16.1934 4.66413 16.2072 4.73393 16.2072H5.06505V16.4489C5.06505 20.4411 3.61129 21.2308 2.44241 21.8644C1.73361 22.2493 0.929688 22.6859 0.929688 23.7918V33.2627C0.929688 34.3061 1.62433 35.1553 2.47857 35.1553H11.6963V36.4809H9.26809C9.12708 36.481 8.99186 36.537 8.89213 36.6366C8.7924 36.7363 8.73633 36.8715 8.73625 37.0125C8.73622 37.0824 8.74995 37.1515 8.77667 37.2161C8.80339 37.2806 8.84257 37.3392 8.89196 37.3886C8.94136 37.438 9 37.4771 9.06454 37.5038C9.12908 37.5305 9.19825 37.5442 9.26809 37.5441H17.455C17.5249 37.5442 17.5941 37.5305 17.6586 37.5038C17.7232 37.4772 17.7818 37.438 17.8312 37.3886C17.8806 37.3393 17.9198 37.2806 17.9465 37.2161C17.9732 37.1516 17.9869 37.0824 17.9869 37.0125C17.9869 36.9427 17.9731 36.8735 17.9464 36.809C17.9197 36.7445 17.8805 36.6859 17.8311 36.6365C17.7817 36.5872 17.7231 36.548 17.6586 36.5213C17.594 36.4946 17.5249 36.4809 17.455 36.4809H15.0272V35.1553H33.0109C34.1477 35.1553 35.0723 34.2304 35.0723 33.0941V9.14053C35.0724 8.00349 34.1478 7.07925 33.0109 7.07925Z" fill="#196480"/>
</svg>
