<svg width="20" height="20" viewBox="0 0 20 20" fill="none" xmlns="http://www.w3.org/2000/svg">
<path d="M1.66406 1.66663H3.11407C4.01407 1.66663 4.7224 2.44163 4.6474 3.33329L3.95573 11.6333C3.83906 12.9916 4.91406 14.1583 6.28072 14.1583H15.1557C16.3557 14.1583 17.4057 13.175 17.4974 11.9833L17.9474 5.7333C18.0474 4.34996 16.9974 3.22496 15.6057 3.22496H4.8474" stroke="#EFF8FF" stroke-width="1.5" stroke-miterlimit="10" stroke-linecap="round" stroke-linejoin="round"/>
<path d="M13.5417 18.3333C14.117 18.3333 14.5833 17.867 14.5833 17.2917C14.5833 16.7164 14.117 16.25 13.5417 16.25C12.9664 16.25 12.5 16.7164 12.5 17.2917C12.5 17.867 12.9664 18.3333 13.5417 18.3333Z" stroke="#EFF8FF" stroke-width="1.5" stroke-miterlimit="10" stroke-linecap="round" stroke-linejoin="round"/>
<path d="M6.8776 18.3333C7.4529 18.3333 7.91927 17.867 7.91927 17.2917C7.91927 16.7164 7.4529 16.25 6.8776 16.25C6.30231 16.25 5.83594 16.7164 5.83594 17.2917C5.83594 17.867 6.30231 18.3333 6.8776 18.3333Z" stroke="#EFF8FF" stroke-width="1.5" stroke-miterlimit="10" stroke-linecap="round" stroke-linejoin="round"/>
<path d="M7.5 6.66663H17.5" stroke="#EFF8FF" stroke-width="1.5" stroke-miterlimit="10" stroke-linecap="round" stroke-linejoin="round"/>
</svg>
